<svg width="84" height="22" viewBox="0 -2 84 22" fill="none" xmlns="http://www.w3.org/2000/svg">
<g clip-path="url(#clip0_2056_600)">
<path d="M19.2391 11.904V16.896C19.0484 16.948 18.7451 17 18.3291 17.052C17.9304 17.104 17.5318 17.13 17.1331 17.13C16.7344 17.13 16.3791 17.0953 16.0671 17.026C15.7724 16.974 15.5211 16.87 15.3131 16.714C15.1224 16.558 14.9751 16.3413 14.8711 16.064C14.7671 15.7867 14.7151 15.4227 14.7151 14.972V2.726C14.7151 2.362 14.8104 2.08467 15.0011 1.894C15.2091 1.686 15.4864 1.52133 15.8331 1.4C16.4224 1.192 17.1071 1.04467 17.8871 0.957999C18.6671 0.853999 19.4991 0.801999 20.3831 0.801999C22.7751 0.801999 24.5778 1.30467 25.7911 2.31C27.0045 3.31533 27.6111 4.676 27.6111 6.392C27.6111 7.46667 27.3338 8.38533 26.7791 9.148C26.2244 9.91067 25.5658 10.5 24.8031 10.916C25.4271 11.7653 26.0425 12.5627 26.6491 13.308C27.2558 14.0533 27.7325 14.7293 28.0791 15.336C27.9058 15.9427 27.5851 16.4107 27.1171 16.74C26.6665 17.052 26.1551 17.208 25.5831 17.208C25.2018 17.208 24.8724 17.1647 24.5951 17.078C24.3178 16.9913 24.0751 16.87 23.8671 16.714C23.6591 16.558 23.4684 16.3673 23.2951 16.142C23.1218 15.9167 22.9571 15.674 22.8011 15.414L20.6171 11.904H19.2391ZM20.8771 8.446C21.5358 8.446 22.0558 8.28133 22.4371 7.952C22.8184 7.60533 23.0091 7.10267 23.0091 6.444C23.0091 5.78533 22.7924 5.29133 22.3591 4.962C21.9431 4.61533 21.2758 4.442 20.3571 4.442C20.0971 4.442 19.8891 4.45067 19.7331 4.468C19.5771 4.48533 19.4038 4.51133 19.2131 4.546V8.446H20.8771ZM28.4577 4.546C28.6311 4.494 28.8997 4.442 29.2637 4.39C29.6451 4.338 30.0351 4.312 30.4337 4.312C30.8151 4.312 31.1531 4.338 31.4477 4.39C31.7597 4.442 32.0197 4.546 32.2277 4.702C32.4357 4.858 32.5917 5.07467 32.6957 5.352C32.8171 5.612 32.8777 5.95867 32.8777 6.392V11.982C32.8777 12.6927 33.0511 13.204 33.3977 13.516C33.7444 13.8107 34.2471 13.958 34.9057 13.958C35.3044 13.958 35.6251 13.9233 35.8677 13.854C36.1277 13.7847 36.3271 13.7153 36.4657 13.646V4.546C36.6391 4.494 36.9077 4.442 37.2717 4.39C37.6531 4.338 38.0431 4.312 38.4417 4.312C38.8231 4.312 39.1611 4.338 39.4557 4.39C39.7677 4.442 40.0277 4.546 40.2357 4.702C40.4437 4.858 40.5997 5.07467 40.7037 5.352C40.8251 5.612 40.8857 5.95867 40.8857 6.392V14.296C40.8857 15.1627 40.5217 15.8127 39.7937 16.246C39.1871 16.6273 38.4591 16.9133 37.6097 17.104C36.7777 17.312 35.8677 17.416 34.8797 17.416C33.9437 17.416 33.0771 17.312 32.2797 17.104C31.4997 16.896 30.8237 16.5753 30.2517 16.142C29.6797 15.7087 29.2377 15.154 28.9257 14.478C28.6137 13.7847 28.4577 12.9527 28.4577 11.982V4.546ZM50.0386 8.992C50.0386 8.45467 49.8826 8.06467 49.5706 7.822C49.2759 7.562 48.8686 7.432 48.3486 7.432C48.0019 7.432 47.6552 7.47533 47.3086 7.562C46.9792 7.64867 46.6932 7.77867 46.4506 7.952V16.974C46.2772 17.026 45.9999 17.078 45.6186 17.13C45.2546 17.182 44.8732 17.208 44.4746 17.208C44.0932 17.208 43.7466 17.182 43.4346 17.13C43.1399 17.078 42.8886 16.974 42.6806 16.818C42.4726 16.662 42.3079 16.454 42.1866 16.194C42.0826 15.9167 42.0306 15.5613 42.0306 15.128V7.328C42.0306 6.86 42.1259 6.47867 42.3166 6.184C42.5246 5.88933 42.8019 5.62067 43.1486 5.378C43.7379 4.962 44.4746 4.624 45.3586 4.364C46.2599 4.104 47.2566 3.974 48.3486 3.974C50.3072 3.974 51.8152 4.40733 52.8726 5.274C53.9299 6.12333 54.4586 7.31067 54.4586 8.836V16.974C54.2852 17.026 54.0079 17.078 53.6266 17.13C53.2626 17.182 52.8812 17.208 52.4826 17.208C52.1012 17.208 51.7546 17.182 51.4426 17.13C51.1479 17.078 50.8966 16.974 50.6886 16.818C50.4806 16.662 50.3159 16.454 50.1946 16.194C50.0906 15.9167 50.0386 15.5613 50.0386 15.128V8.992ZM55.6288 4.546C55.8021 4.494 56.0708 4.442 56.4348 4.39C56.8161 4.338 57.2061 4.312 57.6048 4.312C57.9861 4.312 58.3241 4.338 58.6188 4.39C58.9308 4.442 59.1908 4.546 59.3988 4.702C59.6068 4.858 59.7628 5.07467 59.8668 5.352C59.9881 5.612 60.0488 5.95867 60.0488 6.392V11.982C60.0488 12.6927 60.2221 13.204 60.5688 13.516C60.9154 13.8107 61.4181 13.958 62.0768 13.958C62.4754 13.958 62.7961 13.9233 63.0388 13.854C63.2988 13.7847 63.4981 13.7153 63.6368 13.646V4.546C63.8101 4.494 64.0788 4.442 64.4428 4.39C64.8241 4.338 65.2141 4.312 65.6128 4.312C65.9941 4.312 66.3321 4.338 66.6268 4.39C66.9388 4.442 67.1988 4.546 67.4068 4.702C67.6148 4.858 67.7708 5.07467 67.8748 5.352C67.9961 5.612 68.0568 5.95867 68.0568 6.392V14.296C68.0568 15.1627 67.6928 15.8127 66.9648 16.246C66.3581 16.6273 65.6301 16.9133 64.7808 17.104C63.9488 17.312 63.0388 17.416 62.0508 17.416C61.1148 17.416 60.2481 17.312 59.4508 17.104C58.6708 16.896 57.9948 16.5753 57.4228 16.142C56.8508 15.7087 56.4088 15.154 56.0968 14.478C55.7848 13.7847 55.6288 12.9527 55.6288 11.982V4.546ZM74.9996 3.974C76.0396 3.974 77.0016 4.11267 77.8856 4.39C78.7869 4.65 79.5582 5.05733 80.1996 5.612C80.8409 6.16667 81.3436 6.86867 81.7076 7.718C82.0716 8.55 82.2536 9.54667 82.2536 10.708C82.2536 11.8173 82.0976 12.788 81.7856 13.62C81.4736 14.452 81.0316 15.154 80.4596 15.726C79.8876 16.2807 79.1942 16.6967 78.3796 16.974C77.5822 17.2513 76.6896 17.39 75.7016 17.39C74.9562 17.39 74.2629 17.2773 73.6216 17.052V21.368C73.4482 21.42 73.1709 21.472 72.7896 21.524C72.4082 21.5933 72.0182 21.628 71.6196 21.628C71.2382 21.628 70.8916 21.602 70.5796 21.55C70.2849 21.498 70.0336 21.394 69.8256 21.238C69.6176 21.082 69.4616 20.8653 69.3576 20.588C69.2536 20.328 69.2016 19.9813 69.2016 19.548V7.068C69.2016 6.6 69.2969 6.21867 69.4876 5.924C69.6956 5.62933 69.9729 5.36067 70.3196 5.118C70.8569 4.77133 71.5242 4.494 72.3216 4.286C73.1189 4.078 74.0116 3.974 74.9996 3.974ZM75.0516 13.906C76.8369 13.906 77.7296 12.84 77.7296 10.708C77.7296 9.59867 77.5042 8.77533 77.0536 8.238C76.6202 7.70067 75.9876 7.432 75.1556 7.432C74.8262 7.432 74.5316 7.47533 74.2716 7.562C74.0116 7.63133 73.7862 7.718 73.5956 7.822V13.542C73.8036 13.646 74.0289 13.7327 74.2716 13.802C74.5142 13.8713 74.7742 13.906 75.0516 13.906Z" fill="#26262C"/>
<g filter="url(#filter0_ddd_2056_600)">
<mask id="path-2-outside-1_2056_600" maskUnits="userSpaceOnUse" x="1" y="2.11104" width="16" height="15" fill="black">
<rect fill="white" x="1" y="2.11104" width="16" height="15"/>
<path d="M13.5469 8.11104C14.3438 8.11104 15.75 8.79073 15.75 9.61104C15.75 10.4548 14.3438 11.111 13.5469 11.111H10.8047L8.46094 15.236C8.32031 15.4704 8.0625 15.611 7.80469 15.611H6.49219C6.23438 15.611 6.04688 15.3767 6.11719 15.1423L7.26562 11.111H4.875L3.84375 12.4704C3.77344 12.5642 3.67969 12.611 3.5625 12.611H2.57813C2.39063 12.611 2.25 12.4704 2.25 12.2829C2.25 12.2595 2.25 12.236 2.25 12.2126L3 9.61104L2.25 7.03291C2.25 7.00948 2.25 6.98604 2.25 6.93916C2.25 6.7751 2.39062 6.61104 2.57812 6.61104H3.5625C3.67969 6.61104 3.77344 6.68135 3.84375 6.7751L4.875 8.11104H7.26562L6.11719 4.10323C6.04688 3.86885 6.23438 3.61104 6.49219 3.61104H7.80469C8.0625 3.61104 8.32031 3.7751 8.46094 4.00948L10.8047 8.11104H13.5469Z"/>
</mask>
<path d="M13.5469 8.11104C14.3438 8.11104 15.75 8.79073 15.75 9.61104C15.75 10.4548 14.3438 11.111 13.5469 11.111H10.8047L8.46094 15.236C8.32031 15.4704 8.0625 15.611 7.80469 15.611H6.49219C6.23438 15.611 6.04688 15.3767 6.11719 15.1423L7.26562 11.111H4.875L3.84375 12.4704C3.77344 12.5642 3.67969 12.611 3.5625 12.611H2.57813C2.39063 12.611 2.25 12.4704 2.25 12.2829C2.25 12.2595 2.25 12.236 2.25 12.2126L3 9.61104L2.25 7.03291C2.25 7.00948 2.25 6.98604 2.25 6.93916C2.25 6.7751 2.39062 6.61104 2.57812 6.61104H3.5625C3.67969 6.61104 3.77344 6.68135 3.84375 6.7751L4.875 8.11104H7.26562L6.11719 4.10323C6.04688 3.86885 6.23438 3.61104 6.49219 3.61104H7.80469C8.0625 3.61104 8.32031 3.7751 8.46094 4.00948L10.8047 8.11104H13.5469Z" fill="#026BFE"/>
<path d="M10.8047 11.111V10.111H10.2227L9.93523 10.617L10.8047 11.111ZM8.46094 15.236L9.31843 15.7505L9.32453 15.7404L9.33039 15.73L8.46094 15.236ZM6.11719 15.1423L7.07511 15.4297L7.07892 15.4163L6.11719 15.1423ZM7.26562 11.111L8.22736 11.385L8.5903 10.111H7.26562V11.111ZM4.875 11.111V10.111H4.37843L4.07831 10.5067L4.875 11.111ZM3.84375 12.4704L3.04705 11.866L3.04375 11.8704L3.84375 12.4704ZM2.25 12.2126L1.28913 11.9356L1.25 12.0713V12.2126H2.25ZM3 9.61104L3.96087 9.88805L4.04109 9.60978L3.9602 9.33171L3 9.61104ZM2.25 7.03291H1.25V7.17541L1.2898 7.31224L2.25 7.03291ZM3.84375 6.7751L3.04367 7.37516L3.05216 7.38615L3.84375 6.7751ZM4.875 8.11104L4.08341 8.72209L4.38365 9.11104H4.875V8.11104ZM7.26562 8.11104V9.11104H8.59242L8.22694 7.83557L7.26562 8.11104ZM6.11719 4.10323L7.07857 3.82774L7.07501 3.81588L6.11719 4.10323ZM8.46094 4.00948L9.32918 3.51334L9.3239 3.5041L9.31843 3.49498L8.46094 4.00948ZM10.8047 8.11104L9.93644 8.60718L10.2244 9.11104H10.8047V8.11104ZM13.5469 8.11104V9.11104C13.7208 9.11104 14.0945 9.20661 14.4303 9.40944C14.5883 9.50486 14.6885 9.59521 14.7391 9.658C14.7895 9.72047 14.75 9.702 14.75 9.61104H15.75H16.75C16.75 9.10992 16.5348 8.69887 16.2965 8.40318C16.0585 8.10783 15.7574 7.87444 15.4642 7.6974C14.8977 7.35531 14.1698 7.11104 13.5469 7.11104V8.11104ZM15.75 9.61104H14.75C14.75 9.53216 14.7843 9.51755 14.7373 9.57629C14.6884 9.63734 14.5907 9.72563 14.4344 9.81897C14.1034 10.0167 13.728 10.111 13.5469 10.111V11.111V12.111C14.1626 12.111 14.8888 11.8772 15.4601 11.5359C15.9756 11.2279 16.75 10.5936 16.75 9.61104H15.75ZM13.5469 11.111V10.111H10.8047V11.111V12.111H13.5469V11.111ZM10.8047 11.111L9.93523 10.617L7.59148 14.742L8.46094 15.236L9.33039 15.73L11.6741 11.605L10.8047 11.111ZM8.46094 15.236L7.60344 14.7215C7.62649 14.6831 7.65617 14.657 7.68544 14.6405C7.71385 14.6244 7.75329 14.611 7.80469 14.611V15.611V16.611C8.41133 16.611 8.99584 16.2882 9.31843 15.7505L8.46094 15.236ZM7.80469 15.611V14.611H6.49219V15.611V16.611H7.80469V15.611ZM6.49219 15.611V14.611C6.82489 14.611 7.2194 14.9484 7.07501 15.4296L6.11719 15.1423L5.15936 14.8549C4.87435 15.805 5.64386 16.611 6.49219 16.611V15.611ZM6.11719 15.1423L7.07892 15.4163L8.22736 11.385L7.26562 11.111L6.30389 10.8371L5.15545 14.8683L6.11719 15.1423ZM7.26562 11.111V10.111H4.875V11.111V12.111H7.26562V11.111ZM4.875 11.111L4.07831 10.5067L3.04706 11.866L3.84375 12.4704L4.64044 13.0748L5.67169 11.7154L4.875 11.111ZM3.84375 12.4704L3.04375 11.8704C3.09063 11.8079 3.16584 11.7353 3.27349 11.6815C3.38114 11.6276 3.48437 11.611 3.5625 11.611V12.611V13.611C3.99444 13.611 4.38458 13.416 4.64375 13.0704L3.84375 12.4704ZM3.5625 12.611V11.611H2.57813V12.611V13.611H3.5625V12.611ZM2.57813 12.611V11.611C2.74113 11.611 2.91601 11.6753 3.05086 11.8102C3.1857 11.945 3.25 12.1199 3.25 12.2829H2.25H1.25C1.25 13.0227 1.83834 13.611 2.57813 13.611V12.611ZM2.25 12.2829H3.25C3.25 12.2829 3.25 12.2828 3.25 12.2828C3.25 12.2827 3.25 12.2827 3.25 12.2826C3.25 12.2826 3.25 12.2825 3.25 12.2825C3.25 12.2825 3.25 12.2824 3.25 12.2824C3.25 12.2823 3.25 12.2823 3.25 12.2822C3.25 12.2822 3.25 12.2821 3.25 12.2821C3.25 12.282 3.25 12.282 3.25 12.282C3.25 12.2819 3.25 12.2819 3.25 12.2818C3.25 12.2818 3.25 12.2817 3.25 12.2817C3.25 12.2816 3.25 12.2816 3.25 12.2815C3.25 12.2815 3.25 12.2814 3.25 12.2814C3.25 12.2814 3.25 12.2813 3.25 12.2813C3.25 12.2812 3.25 12.2812 3.25 12.2811C3.25 12.2811 3.25 12.281 3.25 12.281C3.25 12.2809 3.25 12.2809 3.25 12.2809C3.25 12.2808 3.25 12.2808 3.25 12.2807C3.25 12.2807 3.25 12.2806 3.25 12.2806C3.25 12.2805 3.25 12.2805 3.25 12.2804C3.25 12.2804 3.25 12.2803 3.25 12.2803C3.25 12.2803 3.25 12.2802 3.25 12.2802C3.25 12.2801 3.25 12.2801 3.25 12.28C3.25 12.28 3.25 12.2799 3.25 12.2799C3.25 12.2798 3.25 12.2798 3.25 12.2798C3.25 12.2797 3.25 12.2797 3.25 12.2796C3.25 12.2796 3.25 12.2795 3.25 12.2795C3.25 12.2794 3.25 12.2794 3.25 12.2793C3.25 12.2793 3.25 12.2793 3.25 12.2792C3.25 12.2792 3.25 12.2791 3.25 12.2791C3.25 12.279 3.25 12.279 3.25 12.2789C3.25 12.2789 3.25 12.2788 3.25 12.2788C3.25 12.2787 3.25 12.2787 3.25 12.2787C3.25 12.2786 3.25 12.2786 3.25 12.2785C3.25 12.2785 3.25 12.2784 3.25 12.2784C3.25 12.2783 3.25 12.2783 3.25 12.2782C3.25 12.2782 3.25 12.2782 3.25 12.2781C3.25 12.2781 3.25 12.278 3.25 12.278C3.25 12.2779 3.25 12.2779 3.25 12.2778C3.25 12.2778 3.25 12.2777 3.25 12.2777C3.25 12.2776 3.25 12.2776 3.25 12.2776C3.25 12.2775 3.25 12.2775 3.25 12.2774C3.25 12.2774 3.25 12.2773 3.25 12.2773C3.25 12.2772 3.25 12.2772 3.25 12.2771C3.25 12.2771 3.25 12.2771 3.25 12.277C3.25 12.277 3.25 12.2769 3.25 12.2769C3.25 12.2768 3.25 12.2768 3.25 12.2767C3.25 12.2767 3.25 12.2766 3.25 12.2766C3.25 12.2766 3.25 12.2765 3.25 12.2765C3.25 12.2764 3.25 12.2764 3.25 12.2763C3.25 12.2763 3.25 12.2762 3.25 12.2762C3.25 12.2761 3.25 12.2761 3.25 12.276C3.25 12.276 3.25 12.276 3.25 12.2759C3.25 12.2759 3.25 12.2758 3.25 12.2758C3.25 12.2757 3.25 12.2757 3.25 12.2756C3.25 12.2756 3.25 12.2755 3.25 12.2755C3.25 12.2755 3.25 12.2754 3.25 12.2754C3.25 12.2753 3.25 12.2753 3.25 12.2752C3.25 12.2752 3.25 12.2751 3.25 12.2751C3.25 12.275 3.25 12.275 3.25 12.2749C3.25 12.2749 3.25 12.2749 3.25 12.2748C3.25 12.2748 3.25 12.2747 3.25 12.2747C3.25 12.2746 3.25 12.2746 3.25 12.2745C3.25 12.2745 3.25 12.2744 3.25 12.2744C3.25 12.2744 3.25 12.2743 3.25 12.2743C3.25 12.2742 3.25 12.2742 3.25 12.2741C3.25 12.2741 3.25 12.274 3.25 12.274C3.25 12.2739 3.25 12.2739 3.25 12.2738C3.25 12.2738 3.25 12.2738 3.25 12.2737C3.25 12.2737 3.25 12.2736 3.25 12.2736C3.25 12.2735 3.25 12.2735 3.25 12.2734C3.25 12.2734 3.25 12.2733 3.25 12.2733C3.25 12.2733 3.25 12.2732 3.25 12.2732C3.25 12.2731 3.25 12.2731 3.25 12.273C3.25 12.273 3.25 12.2729 3.25 12.2729C3.25 12.2728 3.25 12.2728 3.25 12.2728C3.25 12.2727 3.25 12.2727 3.25 12.2726C3.25 12.2726 3.25 12.2725 3.25 12.2725C3.25 12.2724 3.25 12.2724 3.25 12.2723C3.25 12.2723 3.25 12.2722 3.25 12.2722C3.25 12.2722 3.25 12.2721 3.25 12.2721C3.25 12.272 3.25 12.272 3.25 12.2719C3.25 12.2719 3.25 12.2718 3.25 12.2718C3.25 12.2717 3.25 12.2717 3.25 12.2717C3.25 12.2716 3.25 12.2716 3.25 12.2715C3.25 12.2715 3.25 12.2714 3.25 12.2714C3.25 12.2713 3.25 12.2713 3.25 12.2712C3.25 12.2712 3.25 12.2711 3.25 12.2711C3.25 12.2711 3.25 12.271 3.25 12.271C3.25 12.2709 3.25 12.2709 3.25 12.2708C3.25 12.2708 3.25 12.2707 3.25 12.2707C3.25 12.2706 3.25 12.2706 3.25 12.2706C3.25 12.2705 3.25 12.2705 3.25 12.2704C3.25 12.2704 3.25 12.2703 3.25 12.2703C3.25 12.2702 3.25 12.2702 3.25 12.2701C3.25 12.2701 3.25 12.2701 3.25 12.27C3.25 12.27 3.25 12.2699 3.25 12.2699C3.25 12.2698 3.25 12.2698 3.25 12.2697C3.25 12.2697 3.25 12.2696 3.25 12.2696C3.25 12.2695 3.25 12.2695 3.25 12.2695C3.25 12.2694 3.25 12.2694 3.25 12.2693C3.25 12.2693 3.25 12.2692 3.25 12.2692C3.25 12.2691 3.25 12.2691 3.25 12.269C3.25 12.269 3.25 12.269 3.25 12.2689C3.25 12.2689 3.25 12.2688 3.25 12.2688C3.25 12.2687 3.25 12.2687 3.25 12.2686C3.25 12.2686 3.25 12.2685 3.25 12.2685C3.25 12.2684 3.25 12.2684 3.25 12.2684C3.25 12.2683 3.25 12.2683 3.25 12.2682C3.25 12.2682 3.25 12.2681 3.25 12.2681C3.25 12.268 3.25 12.268 3.25 12.2679C3.25 12.2679 3.25 12.2679 3.25 12.2678C3.25 12.2678 3.25 12.2677 3.25 12.2677C3.25 12.2676 3.25 12.2676 3.25 12.2675C3.25 12.2675 3.25 12.2674 3.25 12.2674C3.25 12.2673 3.25 12.2673 3.25 12.2673C3.25 12.2672 3.25 12.2672 3.25 12.2671C3.25 12.2671 3.25 12.267 3.25 12.267C3.25 12.2669 3.25 12.2669 3.25 12.2668C3.25 12.2668 3.25 12.2668 3.25 12.2667C3.25 12.2667 3.25 12.2666 3.25 12.2666C3.25 12.2665 3.25 12.2665 3.25 12.2664C3.25 12.2664 3.25 12.2663 3.25 12.2663C3.25 12.2663 3.25 12.2662 3.25 12.2662C3.25 12.2661 3.25 12.2661 3.25 12.266C3.25 12.266 3.25 12.2659 3.25 12.2659C3.25 12.2658 3.25 12.2658 3.25 12.2657C3.25 12.2657 3.25 12.2657 3.25 12.2656C3.25 12.2656 3.25 12.2655 3.25 12.2655C3.25 12.2654 3.25 12.2654 3.25 12.2653C3.25 12.2653 3.25 12.2652 3.25 12.2652C3.25 12.2652 3.25 12.2651 3.25 12.2651C3.25 12.265 3.25 12.265 3.25 12.2649C3.25 12.2649 3.25 12.2648 3.25 12.2648C3.25 12.2647 3.25 12.2647 3.25 12.2646C3.25 12.2646 3.25 12.2646 3.25 12.2645C3.25 12.2645 3.25 12.2644 3.25 12.2644C3.25 12.2643 3.25 12.2643 3.25 12.2642C3.25 12.2642 3.25 12.2641 3.25 12.2641C3.25 12.2641 3.25 12.264 3.25 12.264C3.25 12.2639 3.25 12.2639 3.25 12.2638C3.25 12.2638 3.25 12.2637 3.25 12.2637C3.25 12.2636 3.25 12.2636 3.25 12.2635C3.25 12.2635 3.25 12.2635 3.25 12.2634C3.25 12.2634 3.25 12.2633 3.25 12.2633C3.25 12.2632 3.25 12.2632 3.25 12.2631C3.25 12.2631 3.25 12.263 3.25 12.263C3.25 12.263 3.25 12.2629 3.25 12.2629C3.25 12.2628 3.25 12.2628 3.25 12.2627C3.25 12.2627 3.25 12.2626 3.25 12.2626C3.25 12.2625 3.25 12.2625 3.25 12.2625C3.25 12.2624 3.25 12.2624 3.25 12.2623C3.25 12.2623 3.25 12.2622 3.25 12.2622C3.25 12.2621 3.25 12.2621 3.25 12.262C3.25 12.262 3.25 12.2619 3.25 12.2619C3.25 12.2619 3.25 12.2618 3.25 12.2618C3.25 12.2617 3.25 12.2617 3.25 12.2616C3.25 12.2616 3.25 12.2615 3.25 12.2615C3.25 12.2614 3.25 12.2614 3.25 12.2614C3.25 12.2613 3.25 12.2613 3.25 12.2612C3.25 12.2612 3.25 12.2611 3.25 12.2611C3.25 12.261 3.25 12.261 3.25 12.2609C3.25 12.2609 3.25 12.2608 3.25 12.2608C3.25 12.2608 3.25 12.2607 3.25 12.2607C3.25 12.2606 3.25 12.2606 3.25 12.2605C3.25 12.2605 3.25 12.2604 3.25 12.2604C3.25 12.2603 3.25 12.2603 3.25 12.2603C3.25 12.2602 3.25 12.2602 3.25 12.2601C3.25 12.2601 3.25 12.26 3.25 12.26C3.25 12.2599 3.25 12.2599 3.25 12.2598C3.25 12.2598 3.25 12.2598 3.25 12.2597C3.25 12.2597 3.25 12.2596 3.25 12.2596C3.25 12.2595 3.25 12.2595 3.25 12.2594C3.25 12.2594 3.25 12.2593 3.25 12.2593C3.25 12.2592 3.25 12.2592 3.25 12.2592C3.25 12.2591 3.25 12.2591 3.25 12.259C3.25 12.259 3.25 12.2589 3.25 12.2589C3.25 12.2588 3.25 12.2588 3.25 12.2587C3.25 12.2587 3.25 12.2587 3.25 12.2586C3.25 12.2586 3.25 12.2585 3.25 12.2585C3.25 12.2584 3.25 12.2584 3.25 12.2583C3.25 12.2583 3.25 12.2582 3.25 12.2582C3.25 12.2581 3.25 12.2581 3.25 12.2581C3.25 12.258 3.25 12.258 3.25 12.2579C3.25 12.2579 3.25 12.2578 3.25 12.2578C3.25 12.2577 3.25 12.2577 3.25 12.2576C3.25 12.2576 3.25 12.2576 3.25 12.2575C3.25 12.2575 3.25 12.2574 3.25 12.2574C3.25 12.2573 3.25 12.2573 3.25 12.2572C3.25 12.2572 3.25 12.2571 3.25 12.2571C3.25 12.257 3.25 12.257 3.25 12.257C3.25 12.2569 3.25 12.2569 3.25 12.2568C3.25 12.2568 3.25 12.2567 3.25 12.2567C3.25 12.2566 3.25 12.2566 3.25 12.2565C3.25 12.2565 3.25 12.2565 3.25 12.2564C3.25 12.2564 3.25 12.2563 3.25 12.2563C3.25 12.2562 3.25 12.2562 3.25 12.2561C3.25 12.2561 3.25 12.256 3.25 12.256C3.25 12.256 3.25 12.2559 3.25 12.2559C3.25 12.2558 3.25 12.2558 3.25 12.2557C3.25 12.2557 3.25 12.2556 3.25 12.2556C3.25 12.2555 3.25 12.2555 3.25 12.2554C3.25 12.2554 3.25 12.2554 3.25 12.2553C3.25 12.2553 3.25 12.2552 3.25 12.2552C3.25 12.2551 3.25 12.2551 3.25 12.255C3.25 12.255 3.25 12.2549 3.25 12.2549C3.25 12.2549 3.25 12.2548 3.25 12.2548C3.25 12.2547 3.25 12.2547 3.25 12.2546C3.25 12.2546 3.25 12.2545 3.25 12.2545C3.25 12.2544 3.25 12.2544 3.25 12.2543C3.25 12.2543 3.25 12.2543 3.25 12.2542C3.25 12.2542 3.25 12.2541 3.25 12.2541C3.25 12.254 3.25 12.254 3.25 12.2539C3.25 12.2539 3.25 12.2538 3.25 12.2538C3.25 12.2538 3.25 12.2537 3.25 12.2537C3.25 12.2536 3.25 12.2536 3.25 12.2535C3.25 12.2535 3.25 12.2534 3.25 12.2534C3.25 12.2533 3.25 12.2533 3.25 12.2533C3.25 12.2532 3.25 12.2532 3.25 12.2531C3.25 12.2531 3.25 12.253 3.25 12.253C3.25 12.2529 3.25 12.2529 3.25 12.2528C3.25 12.2528 3.25 12.2527 3.25 12.2527C3.25 12.2527 3.25 12.2526 3.25 12.2526C3.25 12.2525 3.25 12.2525 3.25 12.2524C3.25 12.2524 3.25 12.2523 3.25 12.2523C3.25 12.2522 3.25 12.2522 3.25 12.2522C3.25 12.2521 3.25 12.2521 3.25 12.252C3.25 12.252 3.25 12.2519 3.25 12.2519C3.25 12.2518 3.25 12.2518 3.25 12.2517C3.25 12.2517 3.25 12.2516 3.25 12.2516C3.25 12.2516 3.25 12.2515 3.25 12.2515C3.25 12.2514 3.25 12.2514 3.25 12.2513C3.25 12.2513 3.25 12.2512 3.25 12.2512C3.25 12.2511 3.25 12.2511 3.25 12.2511C3.25 12.251 3.25 12.251 3.25 12.2509C3.25 12.2509 3.25 12.2508 3.25 12.2508C3.25 12.2507 3.25 12.2507 3.25 12.2506C3.25 12.2506 3.25 12.2505 3.25 12.2505C3.25 12.2505 3.25 12.2504 3.25 12.2504C3.25 12.2503 3.25 12.2503 3.25 12.2502C3.25 12.2502 3.25 12.2501 3.25 12.2501C3.25 12.25 3.25 12.25 3.25 12.25C3.25 12.2499 3.25 12.2499 3.25 12.2498C3.25 12.2498 3.25 12.2497 3.25 12.2497C3.25 12.2496 3.25 12.2496 3.25 12.2495C3.25 12.2495 3.25 12.2495 3.25 12.2494C3.25 12.2494 3.25 12.2493 3.25 12.2493C3.25 12.2492 3.25 12.2492 3.25 12.2491C3.25 12.2491 3.25 12.249 3.25 12.249C3.25 12.2489 3.25 12.2489 3.25 12.2489C3.25 12.2488 3.25 12.2488 3.25 12.2487C3.25 12.2487 3.25 12.2486 3.25 12.2486C3.25 12.2485 3.25 12.2485 3.25 12.2484C3.25 12.2484 3.25 12.2484 3.25 12.2483C3.25 12.2483 3.25 12.2482 3.25 12.2482C3.25 12.2481 3.25 12.2481 3.25 12.248C3.25 12.248 3.25 12.2479 3.25 12.2479C3.25 12.2478 3.25 12.2478 3.25 12.2478C3.25 12.2477 3.25 12.2477 3.25 12.2476C3.25 12.2476 3.25 12.2475 3.25 12.2475C3.25 12.2474 3.25 12.2474 3.25 12.2473C3.25 12.2473 3.25 12.2473 3.25 12.2472C3.25 12.2472 3.25 12.2471 3.25 12.2471C3.25 12.247 3.25 12.247 3.25 12.2469C3.25 12.2469 3.25 12.2468 3.25 12.2468C3.25 12.2467 3.25 12.2467 3.25 12.2467C3.25 12.2466 3.25 12.2466 3.25 12.2465C3.25 12.2465 3.25 12.2464 3.25 12.2464C3.25 12.2463 3.25 12.2463 3.25 12.2462C3.25 12.2462 3.25 12.2462 3.25 12.2461C3.25 12.2461 3.25 12.246 3.25 12.246C3.25 12.2459 3.25 12.2459 3.25 12.2458C3.25 12.2458 3.25 12.2457 3.25 12.2457C3.25 12.2457 3.25 12.2456 3.25 12.2456C3.25 12.2455 3.25 12.2455 3.25 12.2454C3.25 12.2454 3.25 12.2453 3.25 12.2453C3.25 12.2452 3.25 12.2452 3.25 12.2451C3.25 12.2451 3.25 12.2451 3.25 12.245C3.25 12.245 3.25 12.2449 3.25 12.2449C3.25 12.2448 3.25 12.2448 3.25 12.2447C3.25 12.2447 3.25 12.2446 3.25 12.2446C3.25 12.2446 3.25 12.2445 3.25 12.2445C3.25 12.2444 3.25 12.2444 3.25 12.2443C3.25 12.2443 3.25 12.2442 3.25 12.2442C3.25 12.2441 3.25 12.2441 3.25 12.244C3.25 12.244 3.25 12.244 3.25 12.2439C3.25 12.2439 3.25 12.2438 3.25 12.2438C3.25 12.2437 3.25 12.2437 3.25 12.2436C3.25 12.2436 3.25 12.2435 3.25 12.2435C3.25 12.2435 3.25 12.2434 3.25 12.2434C3.25 12.2433 3.25 12.2433 3.25 12.2432C3.25 12.2432 3.25 12.2431 3.25 12.2431C3.25 12.243 3.25 12.243 3.25 12.243C3.25 12.2429 3.25 12.2429 3.25 12.2428C3.25 12.2428 3.25 12.2427 3.25 12.2427C3.25 12.2426 3.25 12.2426 3.25 12.2425C3.25 12.2425 3.25 12.2424 3.25 12.2424C3.25 12.2424 3.25 12.2423 3.25 12.2423C3.25 12.2422 3.25 12.2422 3.25 12.2421C3.25 12.2421 3.25 12.242 3.25 12.242C3.25 12.2419 3.25 12.2419 3.25 12.2419C3.25 12.2418 3.25 12.2418 3.25 12.2417C3.25 12.2417 3.25 12.2416 3.25 12.2416C3.25 12.2415 3.25 12.2415 3.25 12.2414C3.25 12.2414 3.25 12.2413 3.25 12.2413C3.25 12.2413 3.25 12.2412 3.25 12.2412C3.25 12.2411 3.25 12.2411 3.25 12.241C3.25 12.241 3.25 12.2409 3.25 12.2409C3.25 12.2408 3.25 12.2408 3.25 12.2408C3.25 12.2407 3.25 12.2407 3.25 12.2406C3.25 12.2406 3.25 12.2405 3.25 12.2405C3.25 12.2404 3.25 12.2404 3.25 12.2403C3.25 12.2403 3.25 12.2402 3.25 12.2402C3.25 12.2402 3.25 12.2401 3.25 12.2401C3.25 12.24 3.25 12.24 3.25 12.2399C3.25 12.2399 3.25 12.2398 3.25 12.2398C3.25 12.2397 3.25 12.2397 3.25 12.2397C3.25 12.2396 3.25 12.2396 3.25 12.2395C3.25 12.2395 3.25 12.2394 3.25 12.2394C3.25 12.2393 3.25 12.2393 3.25 12.2392C3.25 12.2392 3.25 12.2392 3.25 12.2391C3.25 12.2391 3.25 12.239 3.25 12.239C3.25 12.2389 3.25 12.2389 3.25 12.2388C3.25 12.2388 3.25 12.2387 3.25 12.2387C3.25 12.2386 3.25 12.2386 3.25 12.2386C3.25 12.2385 3.25 12.2385 3.25 12.2384C3.25 12.2384 3.25 12.2383 3.25 12.2383C3.25 12.2382 3.25 12.2382 3.25 12.2381C3.25 12.2381 3.25 12.2381 3.25 12.238C3.25 12.238 3.25 12.2379 3.25 12.2379C3.25 12.2378 3.25 12.2378 3.25 12.2377C3.25 12.2377 3.25 12.2376 3.25 12.2376C3.25 12.2375 3.25 12.2375 3.25 12.2375C3.25 12.2374 3.25 12.2374 3.25 12.2373C3.25 12.2373 3.25 12.2372 3.25 12.2372C3.25 12.2371 3.25 12.2371 3.25 12.237C3.25 12.237 3.25 12.237 3.25 12.2369C3.25 12.2369 3.25 12.2368 3.25 12.2368C3.25 12.2367 3.25 12.2367 3.25 12.2366C3.25 12.2366 3.25 12.2365 3.25 12.2365C3.25 12.2365 3.25 12.2364 3.25 12.2364C3.25 12.2363 3.25 12.2363 3.25 12.2362C3.25 12.2362 3.25 12.2361 3.25 12.2361C3.25 12.236 3.25 12.236 3.25 12.2359C3.25 12.2359 3.25 12.2359 3.25 12.2358C3.25 12.2358 3.25 12.2357 3.25 12.2357C3.25 12.2356 3.25 12.2356 3.25 12.2355C3.25 12.2355 3.25 12.2354 3.25 12.2354C3.25 12.2354 3.25 12.2353 3.25 12.2353C3.25 12.2352 3.25 12.2352 3.25 12.2351C3.25 12.2351 3.25 12.235 3.25 12.235C3.25 12.2349 3.25 12.2349 3.25 12.2348C3.25 12.2348 3.25 12.2348 3.25 12.2347C3.25 12.2347 3.25 12.2346 3.25 12.2346C3.25 12.2345 3.25 12.2345 3.25 12.2344C3.25 12.2344 3.25 12.2343 3.25 12.2343C3.25 12.2343 3.25 12.2342 3.25 12.2342C3.25 12.2341 3.25 12.2341 3.25 12.234C3.25 12.234 3.25 12.2339 3.25 12.2339C3.25 12.2338 3.25 12.2338 3.25 12.2337C3.25 12.2337 3.25 12.2337 3.25 12.2336C3.25 12.2336 3.25 12.2335 3.25 12.2335C3.25 12.2334 3.25 12.2334 3.25 12.2333C3.25 12.2333 3.25 12.2332 3.25 12.2332C3.25 12.2332 3.25 12.2331 3.25 12.2331C3.25 12.233 3.25 12.233 3.25 12.2329C3.25 12.2329 3.25 12.2328 3.25 12.2328C3.25 12.2327 3.25 12.2327 3.25 12.2327C3.25 12.2326 3.25 12.2326 3.25 12.2325C3.25 12.2325 3.25 12.2324 3.25 12.2324C3.25 12.2323 3.25 12.2323 3.25 12.2322C3.25 12.2322 3.25 12.2321 3.25 12.2321C3.25 12.2321 3.25 12.232 3.25 12.232C3.25 12.2319 3.25 12.2319 3.25 12.2318C3.25 12.2318 3.25 12.2317 3.25 12.2317C3.25 12.2316 3.25 12.2316 3.25 12.2316C3.25 12.2315 3.25 12.2315 3.25 12.2314C3.25 12.2314 3.25 12.2313 3.25 12.2313C3.25 12.2312 3.25 12.2312 3.25 12.2311C3.25 12.2311 3.25 12.231 3.25 12.231C3.25 12.231 3.25 12.2309 3.25 12.2309C3.25 12.2308 3.25 12.2308 3.25 12.2307C3.25 12.2307 3.25 12.2306 3.25 12.2306C3.25 12.2305 3.25 12.2305 3.25 12.2305C3.25 12.2304 3.25 12.2304 3.25 12.2303C3.25 12.2303 3.25 12.2302 3.25 12.2302C3.25 12.2301 3.25 12.2301 3.25 12.23C3.25 12.23 3.25 12.2299 3.25 12.2299C3.25 12.2299 3.25 12.2298 3.25 12.2298C3.25 12.2297 3.25 12.2297 3.25 12.2296C3.25 12.2296 3.25 12.2295 3.25 12.2295C3.25 12.2294 3.25 12.2294 3.25 12.2294C3.25 12.2293 3.25 12.2293 3.25 12.2292C3.25 12.2292 3.25 12.2291 3.25 12.2291C3.25 12.229 3.25 12.229 3.25 12.2289C3.25 12.2289 3.25 12.2289 3.25 12.2288C3.25 12.2288 3.25 12.2287 3.25 12.2287C3.25 12.2286 3.25 12.2286 3.25 12.2285C3.25 12.2285 3.25 12.2284 3.25 12.2284C3.25 12.2283 3.25 12.2283 3.25 12.2283C3.25 12.2282 3.25 12.2282 3.25 12.2281C3.25 12.2281 3.25 12.228 3.25 12.228C3.25 12.2279 3.25 12.2279 3.25 12.2278C3.25 12.2278 3.25 12.2278 3.25 12.2277C3.25 12.2277 3.25 12.2276 3.25 12.2276C3.25 12.2275 3.25 12.2275 3.25 12.2274C3.25 12.2274 3.25 12.2273 3.25 12.2273C3.25 12.2272 3.25 12.2272 3.25 12.2272C3.25 12.2271 3.25 12.2271 3.25 12.227C3.25 12.227 3.25 12.2269 3.25 12.2269C3.25 12.2268 3.25 12.2268 3.25 12.2267C3.25 12.2267 3.25 12.2267 3.25 12.2266C3.25 12.2266 3.25 12.2265 3.25 12.2265C3.25 12.2264 3.25 12.2264 3.25 12.2263C3.25 12.2263 3.25 12.2262 3.25 12.2262C3.25 12.2262 3.25 12.2261 3.25 12.2261C3.25 12.226 3.25 12.226 3.25 12.2259C3.25 12.2259 3.25 12.2258 3.25 12.2258C3.25 12.2257 3.25 12.2257 3.25 12.2256C3.25 12.2256 3.25 12.2256 3.25 12.2255C3.25 12.2255 3.25 12.2254 3.25 12.2254C3.25 12.2253 3.25 12.2253 3.25 12.2252C3.25 12.2252 3.25 12.2251 3.25 12.2251C3.25 12.2251 3.25 12.225 3.25 12.225C3.25 12.2249 3.25 12.2249 3.25 12.2248C3.25 12.2248 3.25 12.2247 3.25 12.2247C3.25 12.2246 3.25 12.2246 3.25 12.2245C3.25 12.2245 3.25 12.2245 3.25 12.2244C3.25 12.2244 3.25 12.2243 3.25 12.2243C3.25 12.2242 3.25 12.2242 3.25 12.2241C3.25 12.2241 3.25 12.224 3.25 12.224C3.25 12.224 3.25 12.2239 3.25 12.2239C3.25 12.2238 3.25 12.2238 3.25 12.2237C3.25 12.2237 3.25 12.2236 3.25 12.2236C3.25 12.2235 3.25 12.2235 3.25 12.2234C3.25 12.2234 3.25 12.2234 3.25 12.2233C3.25 12.2233 3.25 12.2232 3.25 12.2232C3.25 12.2231 3.25 12.2231 3.25 12.223C3.25 12.223 3.25 12.2229 3.25 12.2229C3.25 12.2229 3.25 12.2228 3.25 12.2228C3.25 12.2227 3.25 12.2227 3.25 12.2226C3.25 12.2226 3.25 12.2225 3.25 12.2225C3.25 12.2224 3.25 12.2224 3.25 12.2224C3.25 12.2223 3.25 12.2223 3.25 12.2222C3.25 12.2222 3.25 12.2221 3.25 12.2221C3.25 12.222 3.25 12.222 3.25 12.2219C3.25 12.2219 3.25 12.2218 3.25 12.2218C3.25 12.2218 3.25 12.2217 3.25 12.2217C3.25 12.2216 3.25 12.2216 3.25 12.2215C3.25 12.2215 3.25 12.2214 3.25 12.2214C3.25 12.2213 3.25 12.2213 3.25 12.2213C3.25 12.2212 3.25 12.2212 3.25 12.2211C3.25 12.2211 3.25 12.221 3.25 12.221C3.25 12.2209 3.25 12.2209 3.25 12.2208C3.25 12.2208 3.25 12.2207 3.25 12.2207C3.25 12.2207 3.25 12.2206 3.25 12.2206C3.25 12.2205 3.25 12.2205 3.25 12.2204C3.25 12.2204 3.25 12.2203 3.25 12.2203C3.25 12.2202 3.25 12.2202 3.25 12.2202C3.25 12.2201 3.25 12.2201 3.25 12.22C3.25 12.22 3.25 12.2199 3.25 12.2199C3.25 12.2198 3.25 12.2198 3.25 12.2197C3.25 12.2197 3.25 12.2197 3.25 12.2196C3.25 12.2196 3.25 12.2195 3.25 12.2195C3.25 12.2194 3.25 12.2194 3.25 12.2193C3.25 12.2193 3.25 12.2192 3.25 12.2192C3.25 12.2191 3.25 12.2191 3.25 12.2191C3.25 12.219 3.25 12.219 3.25 12.2189C3.25 12.2189 3.25 12.2188 3.25 12.2188C3.25 12.2187 3.25 12.2187 3.25 12.2186C3.25 12.2186 3.25 12.2186 3.25 12.2185C3.25 12.2185 3.25 12.2184 3.25 12.2184C3.25 12.2183 3.25 12.2183 3.25 12.2182C3.25 12.2182 3.25 12.2181 3.25 12.2181C3.25 12.218 3.25 12.218 3.25 12.218C3.25 12.2179 3.25 12.2179 3.25 12.2178C3.25 12.2178 3.25 12.2177 3.25 12.2177C3.25 12.2176 3.25 12.2176 3.25 12.2175C3.25 12.2175 3.25 12.2175 3.25 12.2174C3.25 12.2174 3.25 12.2173 3.25 12.2173C3.25 12.2172 3.25 12.2172 3.25 12.2171C3.25 12.2171 3.25 12.217 3.25 12.217C3.25 12.2169 3.25 12.2169 3.25 12.2169C3.25 12.2168 3.25 12.2168 3.25 12.2167C3.25 12.2167 3.25 12.2166 3.25 12.2166C3.25 12.2165 3.25 12.2165 3.25 12.2164C3.25 12.2164 3.25 12.2164 3.25 12.2163C3.25 12.2163 3.25 12.2162 3.25 12.2162C3.25 12.2161 3.25 12.2161 3.25 12.216C3.25 12.216 3.25 12.2159 3.25 12.2159C3.25 12.2159 3.25 12.2158 3.25 12.2158C3.25 12.2157 3.25 12.2157 3.25 12.2156C3.25 12.2156 3.25 12.2155 3.25 12.2155C3.25 12.2154 3.25 12.2154 3.25 12.2153C3.25 12.2153 3.25 12.2153 3.25 12.2152C3.25 12.2152 3.25 12.2151 3.25 12.2151C3.25 12.215 3.25 12.215 3.25 12.2149C3.25 12.2149 3.25 12.2148 3.25 12.2148C3.25 12.2148 3.25 12.2147 3.25 12.2147C3.25 12.2146 3.25 12.2146 3.25 12.2145C3.25 12.2145 3.25 12.2144 3.25 12.2144C3.25 12.2143 3.25 12.2143 3.25 12.2142C3.25 12.2142 3.25 12.2142 3.25 12.2141C3.25 12.2141 3.25 12.214 3.25 12.214C3.25 12.2139 3.25 12.2139 3.25 12.2138C3.25 12.2138 3.25 12.2137 3.25 12.2137C3.25 12.2137 3.25 12.2136 3.25 12.2136C3.25 12.2135 3.25 12.2135 3.25 12.2134C3.25 12.2134 3.25 12.2133 3.25 12.2133C3.25 12.2132 3.25 12.2132 3.25 12.2132C3.25 12.2131 3.25 12.2131 3.25 12.213C3.25 12.213 3.25 12.2129 3.25 12.2129C3.25 12.2128 3.25 12.2128 3.25 12.2127C3.25 12.2127 3.25 12.2126 3.25 12.2126H2.25H1.25C1.25 12.2126 1.25 12.2127 1.25 12.2127C1.25 12.2128 1.25 12.2128 1.25 12.2129C1.25 12.2129 1.25 12.213 1.25 12.213C1.25 12.2131 1.25 12.2131 1.25 12.2132C1.25 12.2132 1.25 12.2132 1.25 12.2133C1.25 12.2133 1.25 12.2134 1.25 12.2134C1.25 12.2135 1.25 12.2135 1.25 12.2136C1.25 12.2136 1.25 12.2137 1.25 12.2137C1.25 12.2137 1.25 12.2138 1.25 12.2138C1.25 12.2139 1.25 12.2139 1.25 12.214C1.25 12.214 1.25 12.2141 1.25 12.2141C1.25 12.2142 1.25 12.2142 1.25 12.2142C1.25 12.2143 1.25 12.2143 1.25 12.2144C1.25 12.2144 1.25 12.2145 1.25 12.2145C1.25 12.2146 1.25 12.2146 1.25 12.2147C1.25 12.2147 1.25 12.2148 1.25 12.2148C1.25 12.2148 1.25 12.2149 1.25 12.2149C1.25 12.215 1.25 12.215 1.25 12.2151C1.25 12.2151 1.25 12.2152 1.25 12.2152C1.25 12.2153 1.25 12.2153 1.25 12.2153C1.25 12.2154 1.25 12.2154 1.25 12.2155C1.25 12.2155 1.25 12.2156 1.25 12.2156C1.25 12.2157 1.25 12.2157 1.25 12.2158C1.25 12.2158 1.25 12.2159 1.25 12.2159C1.25 12.2159 1.25 12.216 1.25 12.216C1.25 12.2161 1.25 12.2161 1.25 12.2162C1.25 12.2162 1.25 12.2163 1.25 12.2163C1.25 12.2164 1.25 12.2164 1.25 12.2164C1.25 12.2165 1.25 12.2165 1.25 12.2166C1.25 12.2166 1.25 12.2167 1.25 12.2167C1.25 12.2168 1.25 12.2168 1.25 12.2169C1.25 12.2169 1.25 12.2169 1.25 12.217C1.25 12.217 1.25 12.2171 1.25 12.2171C1.25 12.2172 1.25 12.2172 1.25 12.2173C1.25 12.2173 1.25 12.2174 1.25 12.2174C1.25 12.2175 1.25 12.2175 1.25 12.2175C1.25 12.2176 1.25 12.2176 1.25 12.2177C1.25 12.2177 1.25 12.2178 1.25 12.2178C1.25 12.2179 1.25 12.2179 1.25 12.218C1.25 12.218 1.25 12.218 1.25 12.2181C1.25 12.2181 1.25 12.2182 1.25 12.2182C1.25 12.2183 1.25 12.2183 1.25 12.2184C1.25 12.2184 1.25 12.2185 1.25 12.2185C1.25 12.2186 1.25 12.2186 1.25 12.2186C1.25 12.2187 1.25 12.2187 1.25 12.2188C1.25 12.2188 1.25 12.2189 1.25 12.2189C1.25 12.219 1.25 12.219 1.25 12.2191C1.25 12.2191 1.25 12.2191 1.25 12.2192C1.25 12.2192 1.25 12.2193 1.25 12.2193C1.25 12.2194 1.25 12.2194 1.25 12.2195C1.25 12.2195 1.25 12.2196 1.25 12.2196C1.25 12.2197 1.25 12.2197 1.25 12.2197C1.25 12.2198 1.25 12.2198 1.25 12.2199C1.25 12.2199 1.25 12.22 1.25 12.22C1.25 12.2201 1.25 12.2201 1.25 12.2202C1.25 12.2202 1.25 12.2202 1.25 12.2203C1.25 12.2203 1.25 12.2204 1.25 12.2204C1.25 12.2205 1.25 12.2205 1.25 12.2206C1.25 12.2206 1.25 12.2207 1.25 12.2207C1.25 12.2207 1.25 12.2208 1.25 12.2208C1.25 12.2209 1.25 12.2209 1.25 12.221C1.25 12.221 1.25 12.2211 1.25 12.2211C1.25 12.2212 1.25 12.2212 1.25 12.2213C1.25 12.2213 1.25 12.2213 1.25 12.2214C1.25 12.2214 1.25 12.2215 1.25 12.2215C1.25 12.2216 1.25 12.2216 1.25 12.2217C1.25 12.2217 1.25 12.2218 1.25 12.2218C1.25 12.2218 1.25 12.2219 1.25 12.2219C1.25 12.222 1.25 12.222 1.25 12.2221C1.25 12.2221 1.25 12.2222 1.25 12.2222C1.25 12.2223 1.25 12.2223 1.25 12.2224C1.25 12.2224 1.25 12.2224 1.25 12.2225C1.25 12.2225 1.25 12.2226 1.25 12.2226C1.25 12.2227 1.25 12.2227 1.25 12.2228C1.25 12.2228 1.25 12.2229 1.25 12.2229C1.25 12.2229 1.25 12.223 1.25 12.223C1.25 12.2231 1.25 12.2231 1.25 12.2232C1.25 12.2232 1.25 12.2233 1.25 12.2233C1.25 12.2234 1.25 12.2234 1.25 12.2234C1.25 12.2235 1.25 12.2235 1.25 12.2236C1.25 12.2236 1.25 12.2237 1.25 12.2237C1.25 12.2238 1.25 12.2238 1.25 12.2239C1.25 12.2239 1.25 12.224 1.25 12.224C1.25 12.224 1.25 12.2241 1.25 12.2241C1.25 12.2242 1.25 12.2242 1.25 12.2243C1.25 12.2243 1.25 12.2244 1.25 12.2244C1.25 12.2245 1.25 12.2245 1.25 12.2245C1.25 12.2246 1.25 12.2246 1.25 12.2247C1.25 12.2247 1.25 12.2248 1.25 12.2248C1.25 12.2249 1.25 12.2249 1.25 12.225C1.25 12.225 1.25 12.2251 1.25 12.2251C1.25 12.2251 1.25 12.2252 1.25 12.2252C1.25 12.2253 1.25 12.2253 1.25 12.2254C1.25 12.2254 1.25 12.2255 1.25 12.2255C1.25 12.2256 1.25 12.2256 1.25 12.2256C1.25 12.2257 1.25 12.2257 1.25 12.2258C1.25 12.2258 1.25 12.2259 1.25 12.2259C1.25 12.226 1.25 12.226 1.25 12.2261C1.25 12.2261 1.25 12.2262 1.25 12.2262C1.25 12.2262 1.25 12.2263 1.25 12.2263C1.25 12.2264 1.25 12.2264 1.25 12.2265C1.25 12.2265 1.25 12.2266 1.25 12.2266C1.25 12.2267 1.25 12.2267 1.25 12.2267C1.25 12.2268 1.25 12.2268 1.25 12.2269C1.25 12.2269 1.25 12.227 1.25 12.227C1.25 12.2271 1.25 12.2271 1.25 12.2272C1.25 12.2272 1.25 12.2272 1.25 12.2273C1.25 12.2273 1.25 12.2274 1.25 12.2274C1.25 12.2275 1.25 12.2275 1.25 12.2276C1.25 12.2276 1.25 12.2277 1.25 12.2277C1.25 12.2278 1.25 12.2278 1.25 12.2278C1.25 12.2279 1.25 12.2279 1.25 12.228C1.25 12.228 1.25 12.2281 1.25 12.2281C1.25 12.2282 1.25 12.2282 1.25 12.2283C1.25 12.2283 1.25 12.2283 1.25 12.2284C1.25 12.2284 1.25 12.2285 1.25 12.2285C1.25 12.2286 1.25 12.2286 1.25 12.2287C1.25 12.2287 1.25 12.2288 1.25 12.2288C1.25 12.2289 1.25 12.2289 1.25 12.2289C1.25 12.229 1.25 12.229 1.25 12.2291C1.25 12.2291 1.25 12.2292 1.25 12.2292C1.25 12.2293 1.25 12.2293 1.25 12.2294C1.25 12.2294 1.25 12.2294 1.25 12.2295C1.25 12.2295 1.25 12.2296 1.25 12.2296C1.25 12.2297 1.25 12.2297 1.25 12.2298C1.25 12.2298 1.25 12.2299 1.25 12.2299C1.25 12.2299 1.25 12.23 1.25 12.23C1.25 12.2301 1.25 12.2301 1.25 12.2302C1.25 12.2302 1.25 12.2303 1.25 12.2303C1.25 12.2304 1.25 12.2304 1.25 12.2305C1.25 12.2305 1.25 12.2305 1.25 12.2306C1.25 12.2306 1.25 12.2307 1.25 12.2307C1.25 12.2308 1.25 12.2308 1.25 12.2309C1.25 12.2309 1.25 12.231 1.25 12.231C1.25 12.231 1.25 12.2311 1.25 12.2311C1.25 12.2312 1.25 12.2312 1.25 12.2313C1.25 12.2313 1.25 12.2314 1.25 12.2314C1.25 12.2315 1.25 12.2315 1.25 12.2316C1.25 12.2316 1.25 12.2316 1.25 12.2317C1.25 12.2317 1.25 12.2318 1.25 12.2318C1.25 12.2319 1.25 12.2319 1.25 12.232C1.25 12.232 1.25 12.2321 1.25 12.2321C1.25 12.2321 1.25 12.2322 1.25 12.2322C1.25 12.2323 1.25 12.2323 1.25 12.2324C1.25 12.2324 1.25 12.2325 1.25 12.2325C1.25 12.2326 1.25 12.2326 1.25 12.2327C1.25 12.2327 1.25 12.2327 1.25 12.2328C1.25 12.2328 1.25 12.2329 1.25 12.2329C1.25 12.233 1.25 12.233 1.25 12.2331C1.25 12.2331 1.25 12.2332 1.25 12.2332C1.25 12.2332 1.25 12.2333 1.25 12.2333C1.25 12.2334 1.25 12.2334 1.25 12.2335C1.25 12.2335 1.25 12.2336 1.25 12.2336C1.25 12.2337 1.25 12.2337 1.25 12.2337C1.25 12.2338 1.25 12.2338 1.25 12.2339C1.25 12.2339 1.25 12.234 1.25 12.234C1.25 12.2341 1.25 12.2341 1.25 12.2342C1.25 12.2342 1.25 12.2343 1.25 12.2343C1.25 12.2343 1.25 12.2344 1.25 12.2344C1.25 12.2345 1.25 12.2345 1.25 12.2346C1.25 12.2346 1.25 12.2347 1.25 12.2347C1.25 12.2348 1.25 12.2348 1.25 12.2348C1.25 12.2349 1.25 12.2349 1.25 12.235C1.25 12.235 1.25 12.2351 1.25 12.2351C1.25 12.2352 1.25 12.2352 1.25 12.2353C1.25 12.2353 1.25 12.2354 1.25 12.2354C1.25 12.2354 1.25 12.2355 1.25 12.2355C1.25 12.2356 1.25 12.2356 1.25 12.2357C1.25 12.2357 1.25 12.2358 1.25 12.2358C1.25 12.2359 1.25 12.2359 1.25 12.2359C1.25 12.236 1.25 12.236 1.25 12.2361C1.25 12.2361 1.25 12.2362 1.25 12.2362C1.25 12.2363 1.25 12.2363 1.25 12.2364C1.25 12.2364 1.25 12.2365 1.25 12.2365C1.25 12.2365 1.25 12.2366 1.25 12.2366C1.25 12.2367 1.25 12.2367 1.25 12.2368C1.25 12.2368 1.25 12.2369 1.25 12.2369C1.25 12.237 1.25 12.237 1.25 12.237C1.25 12.2371 1.25 12.2371 1.25 12.2372C1.25 12.2372 1.25 12.2373 1.25 12.2373C1.25 12.2374 1.25 12.2374 1.25 12.2375C1.25 12.2375 1.25 12.2375 1.25 12.2376C1.25 12.2376 1.25 12.2377 1.25 12.2377C1.25 12.2378 1.25 12.2378 1.25 12.2379C1.25 12.2379 1.25 12.238 1.25 12.238C1.25 12.2381 1.25 12.2381 1.25 12.2381C1.25 12.2382 1.25 12.2382 1.25 12.2383C1.25 12.2383 1.25 12.2384 1.25 12.2384C1.25 12.2385 1.25 12.2385 1.25 12.2386C1.25 12.2386 1.25 12.2386 1.25 12.2387C1.25 12.2387 1.25 12.2388 1.25 12.2388C1.25 12.2389 1.25 12.2389 1.25 12.239C1.25 12.239 1.25 12.2391 1.25 12.2391C1.25 12.2392 1.25 12.2392 1.25 12.2392C1.25 12.2393 1.25 12.2393 1.25 12.2394C1.25 12.2394 1.25 12.2395 1.25 12.2395C1.25 12.2396 1.25 12.2396 1.25 12.2397C1.25 12.2397 1.25 12.2397 1.25 12.2398C1.25 12.2398 1.25 12.2399 1.25 12.2399C1.25 12.24 1.25 12.24 1.25 12.2401C1.25 12.2401 1.25 12.2402 1.25 12.2402C1.25 12.2402 1.25 12.2403 1.25 12.2403C1.25 12.2404 1.25 12.2404 1.25 12.2405C1.25 12.2405 1.25 12.2406 1.25 12.2406C1.25 12.2407 1.25 12.2407 1.25 12.2408C1.25 12.2408 1.25 12.2408 1.25 12.2409C1.25 12.2409 1.25 12.241 1.25 12.241C1.25 12.2411 1.25 12.2411 1.25 12.2412C1.25 12.2412 1.25 12.2413 1.25 12.2413C1.25 12.2413 1.25 12.2414 1.25 12.2414C1.25 12.2415 1.25 12.2415 1.25 12.2416C1.25 12.2416 1.25 12.2417 1.25 12.2417C1.25 12.2418 1.25 12.2418 1.25 12.2419C1.25 12.2419 1.25 12.2419 1.25 12.242C1.25 12.242 1.25 12.2421 1.25 12.2421C1.25 12.2422 1.25 12.2422 1.25 12.2423C1.25 12.2423 1.25 12.2424 1.25 12.2424C1.25 12.2424 1.25 12.2425 1.25 12.2425C1.25 12.2426 1.25 12.2426 1.25 12.2427C1.25 12.2427 1.25 12.2428 1.25 12.2428C1.25 12.2429 1.25 12.2429 1.25 12.243C1.25 12.243 1.25 12.243 1.25 12.2431C1.25 12.2431 1.25 12.2432 1.25 12.2432C1.25 12.2433 1.25 12.2433 1.25 12.2434C1.25 12.2434 1.25 12.2435 1.25 12.2435C1.25 12.2435 1.25 12.2436 1.25 12.2436C1.25 12.2437 1.25 12.2437 1.25 12.2438C1.25 12.2438 1.25 12.2439 1.25 12.2439C1.25 12.244 1.25 12.244 1.25 12.244C1.25 12.2441 1.25 12.2441 1.25 12.2442C1.25 12.2442 1.25 12.2443 1.25 12.2443C1.25 12.2444 1.25 12.2444 1.25 12.2445C1.25 12.2445 1.25 12.2446 1.25 12.2446C1.25 12.2446 1.25 12.2447 1.25 12.2447C1.25 12.2448 1.25 12.2448 1.25 12.2449C1.25 12.2449 1.25 12.245 1.25 12.245C1.25 12.2451 1.25 12.2451 1.25 12.2451C1.25 12.2452 1.25 12.2452 1.25 12.2453C1.25 12.2453 1.25 12.2454 1.25 12.2454C1.25 12.2455 1.25 12.2455 1.25 12.2456C1.25 12.2456 1.25 12.2457 1.25 12.2457C1.25 12.2457 1.25 12.2458 1.25 12.2458C1.25 12.2459 1.25 12.2459 1.25 12.246C1.25 12.246 1.25 12.2461 1.25 12.2461C1.25 12.2462 1.25 12.2462 1.25 12.2462C1.25 12.2463 1.25 12.2463 1.25 12.2464C1.25 12.2464 1.25 12.2465 1.25 12.2465C1.25 12.2466 1.25 12.2466 1.25 12.2467C1.25 12.2467 1.25 12.2467 1.25 12.2468C1.25 12.2468 1.25 12.2469 1.25 12.2469C1.25 12.247 1.25 12.247 1.25 12.2471C1.25 12.2471 1.25 12.2472 1.25 12.2472C1.25 12.2473 1.25 12.2473 1.25 12.2473C1.25 12.2474 1.25 12.2474 1.25 12.2475C1.25 12.2475 1.25 12.2476 1.25 12.2476C1.25 12.2477 1.25 12.2477 1.25 12.2478C1.25 12.2478 1.25 12.2478 1.25 12.2479C1.25 12.2479 1.25 12.248 1.25 12.248C1.25 12.2481 1.25 12.2481 1.25 12.2482C1.25 12.2482 1.25 12.2483 1.25 12.2483C1.25 12.2484 1.25 12.2484 1.25 12.2484C1.25 12.2485 1.25 12.2485 1.25 12.2486C1.25 12.2486 1.25 12.2487 1.25 12.2487C1.25 12.2488 1.25 12.2488 1.25 12.2489C1.25 12.2489 1.25 12.2489 1.25 12.249C1.25 12.249 1.25 12.2491 1.25 12.2491C1.25 12.2492 1.25 12.2492 1.25 12.2493C1.25 12.2493 1.25 12.2494 1.25 12.2494C1.25 12.2495 1.25 12.2495 1.25 12.2495C1.25 12.2496 1.25 12.2496 1.25 12.2497C1.25 12.2497 1.25 12.2498 1.25 12.2498C1.25 12.2499 1.25 12.2499 1.25 12.25C1.25 12.25 1.25 12.25 1.25 12.2501C1.25 12.2501 1.25 12.2502 1.25 12.2502C1.25 12.2503 1.25 12.2503 1.25 12.2504C1.25 12.2504 1.25 12.2505 1.25 12.2505C1.25 12.2505 1.25 12.2506 1.25 12.2506C1.25 12.2507 1.25 12.2507 1.25 12.2508C1.25 12.2508 1.25 12.2509 1.25 12.2509C1.25 12.251 1.25 12.251 1.25 12.2511C1.25 12.2511 1.25 12.2511 1.25 12.2512C1.25 12.2512 1.25 12.2513 1.25 12.2513C1.25 12.2514 1.25 12.2514 1.25 12.2515C1.25 12.2515 1.25 12.2516 1.25 12.2516C1.25 12.2516 1.25 12.2517 1.25 12.2517C1.25 12.2518 1.25 12.2518 1.25 12.2519C1.25 12.2519 1.25 12.252 1.25 12.252C1.25 12.2521 1.25 12.2521 1.25 12.2522C1.25 12.2522 1.25 12.2522 1.25 12.2523C1.25 12.2523 1.25 12.2524 1.25 12.2524C1.25 12.2525 1.25 12.2525 1.25 12.2526C1.25 12.2526 1.25 12.2527 1.25 12.2527C1.25 12.2527 1.25 12.2528 1.25 12.2528C1.25 12.2529 1.25 12.2529 1.25 12.253C1.25 12.253 1.25 12.2531 1.25 12.2531C1.25 12.2532 1.25 12.2532 1.25 12.2533C1.25 12.2533 1.25 12.2533 1.25 12.2534C1.25 12.2534 1.25 12.2535 1.25 12.2535C1.25 12.2536 1.25 12.2536 1.25 12.2537C1.25 12.2537 1.25 12.2538 1.25 12.2538C1.25 12.2538 1.25 12.2539 1.25 12.2539C1.25 12.254 1.25 12.254 1.25 12.2541C1.25 12.2541 1.25 12.2542 1.25 12.2542C1.25 12.2543 1.25 12.2543 1.25 12.2543C1.25 12.2544 1.25 12.2544 1.25 12.2545C1.25 12.2545 1.25 12.2546 1.25 12.2546C1.25 12.2547 1.25 12.2547 1.25 12.2548C1.25 12.2548 1.25 12.2549 1.25 12.2549C1.25 12.2549 1.25 12.255 1.25 12.255C1.25 12.2551 1.25 12.2551 1.25 12.2552C1.25 12.2552 1.25 12.2553 1.25 12.2553C1.25 12.2554 1.25 12.2554 1.25 12.2554C1.25 12.2555 1.25 12.2555 1.25 12.2556C1.25 12.2556 1.25 12.2557 1.25 12.2557C1.25 12.2558 1.25 12.2558 1.25 12.2559C1.25 12.2559 1.25 12.256 1.25 12.256C1.25 12.256 1.25 12.2561 1.25 12.2561C1.25 12.2562 1.25 12.2562 1.25 12.2563C1.25 12.2563 1.25 12.2564 1.25 12.2564C1.25 12.2565 1.25 12.2565 1.25 12.2565C1.25 12.2566 1.25 12.2566 1.25 12.2567C1.25 12.2567 1.25 12.2568 1.25 12.2568C1.25 12.2569 1.25 12.2569 1.25 12.257C1.25 12.257 1.25 12.257 1.25 12.2571C1.25 12.2571 1.25 12.2572 1.25 12.2572C1.25 12.2573 1.25 12.2573 1.25 12.2574C1.25 12.2574 1.25 12.2575 1.25 12.2575C1.25 12.2576 1.25 12.2576 1.25 12.2576C1.25 12.2577 1.25 12.2577 1.25 12.2578C1.25 12.2578 1.25 12.2579 1.25 12.2579C1.25 12.258 1.25 12.258 1.25 12.2581C1.25 12.2581 1.25 12.2581 1.25 12.2582C1.25 12.2582 1.25 12.2583 1.25 12.2583C1.25 12.2584 1.25 12.2584 1.25 12.2585C1.25 12.2585 1.25 12.2586 1.25 12.2586C1.25 12.2587 1.25 12.2587 1.25 12.2587C1.25 12.2588 1.25 12.2588 1.25 12.2589C1.25 12.2589 1.25 12.259 1.25 12.259C1.25 12.2591 1.25 12.2591 1.25 12.2592C1.25 12.2592 1.25 12.2592 1.25 12.2593C1.25 12.2593 1.25 12.2594 1.25 12.2594C1.25 12.2595 1.25 12.2595 1.25 12.2596C1.25 12.2596 1.25 12.2597 1.25 12.2597C1.25 12.2598 1.25 12.2598 1.25 12.2598C1.25 12.2599 1.25 12.2599 1.25 12.26C1.25 12.26 1.25 12.2601 1.25 12.2601C1.25 12.2602 1.25 12.2602 1.25 12.2603C1.25 12.2603 1.25 12.2603 1.25 12.2604C1.25 12.2604 1.25 12.2605 1.25 12.2605C1.25 12.2606 1.25 12.2606 1.25 12.2607C1.25 12.2607 1.25 12.2608 1.25 12.2608C1.25 12.2608 1.25 12.2609 1.25 12.2609C1.25 12.261 1.25 12.261 1.25 12.2611C1.25 12.2611 1.25 12.2612 1.25 12.2612C1.25 12.2613 1.25 12.2613 1.25 12.2614C1.25 12.2614 1.25 12.2614 1.25 12.2615C1.25 12.2615 1.25 12.2616 1.25 12.2616C1.25 12.2617 1.25 12.2617 1.25 12.2618C1.25 12.2618 1.25 12.2619 1.25 12.2619C1.25 12.2619 1.25 12.262 1.25 12.262C1.25 12.2621 1.25 12.2621 1.25 12.2622C1.25 12.2622 1.25 12.2623 1.25 12.2623C1.25 12.2624 1.25 12.2624 1.25 12.2625C1.25 12.2625 1.25 12.2625 1.25 12.2626C1.25 12.2626 1.25 12.2627 1.25 12.2627C1.25 12.2628 1.25 12.2628 1.25 12.2629C1.25 12.2629 1.25 12.263 1.25 12.263C1.25 12.263 1.25 12.2631 1.25 12.2631C1.25 12.2632 1.25 12.2632 1.25 12.2633C1.25 12.2633 1.25 12.2634 1.25 12.2634C1.25 12.2635 1.25 12.2635 1.25 12.2635C1.25 12.2636 1.25 12.2636 1.25 12.2637C1.25 12.2637 1.25 12.2638 1.25 12.2638C1.25 12.2639 1.25 12.2639 1.25 12.264C1.25 12.264 1.25 12.2641 1.25 12.2641C1.25 12.2641 1.25 12.2642 1.25 12.2642C1.25 12.2643 1.25 12.2643 1.25 12.2644C1.25 12.2644 1.25 12.2645 1.25 12.2645C1.25 12.2646 1.25 12.2646 1.25 12.2646C1.25 12.2647 1.25 12.2647 1.25 12.2648C1.25 12.2648 1.25 12.2649 1.25 12.2649C1.25 12.265 1.25 12.265 1.25 12.2651C1.25 12.2651 1.25 12.2652 1.25 12.2652C1.25 12.2652 1.25 12.2653 1.25 12.2653C1.25 12.2654 1.25 12.2654 1.25 12.2655C1.25 12.2655 1.25 12.2656 1.25 12.2656C1.25 12.2657 1.25 12.2657 1.25 12.2657C1.25 12.2658 1.25 12.2658 1.25 12.2659C1.25 12.2659 1.25 12.266 1.25 12.266C1.25 12.2661 1.25 12.2661 1.25 12.2662C1.25 12.2662 1.25 12.2663 1.25 12.2663C1.25 12.2663 1.25 12.2664 1.25 12.2664C1.25 12.2665 1.25 12.2665 1.25 12.2666C1.25 12.2666 1.25 12.2667 1.25 12.2667C1.25 12.2668 1.25 12.2668 1.25 12.2668C1.25 12.2669 1.25 12.2669 1.25 12.267C1.25 12.267 1.25 12.2671 1.25 12.2671C1.25 12.2672 1.25 12.2672 1.25 12.2673C1.25 12.2673 1.25 12.2673 1.25 12.2674C1.25 12.2674 1.25 12.2675 1.25 12.2675C1.25 12.2676 1.25 12.2676 1.25 12.2677C1.25 12.2677 1.25 12.2678 1.25 12.2678C1.25 12.2679 1.25 12.2679 1.25 12.2679C1.25 12.268 1.25 12.268 1.25 12.2681C1.25 12.2681 1.25 12.2682 1.25 12.2682C1.25 12.2683 1.25 12.2683 1.25 12.2684C1.25 12.2684 1.25 12.2684 1.25 12.2685C1.25 12.2685 1.25 12.2686 1.25 12.2686C1.25 12.2687 1.25 12.2687 1.25 12.2688C1.25 12.2688 1.25 12.2689 1.25 12.2689C1.25 12.269 1.25 12.269 1.25 12.269C1.25 12.2691 1.25 12.2691 1.25 12.2692C1.25 12.2692 1.25 12.2693 1.25 12.2693C1.25 12.2694 1.25 12.2694 1.25 12.2695C1.25 12.2695 1.25 12.2695 1.25 12.2696C1.25 12.2696 1.25 12.2697 1.25 12.2697C1.25 12.2698 1.25 12.2698 1.25 12.2699C1.25 12.2699 1.25 12.27 1.25 12.27C1.25 12.2701 1.25 12.2701 1.25 12.2701C1.25 12.2702 1.25 12.2702 1.25 12.2703C1.25 12.2703 1.25 12.2704 1.25 12.2704C1.25 12.2705 1.25 12.2705 1.25 12.2706C1.25 12.2706 1.25 12.2706 1.25 12.2707C1.25 12.2707 1.25 12.2708 1.25 12.2708C1.25 12.2709 1.25 12.2709 1.25 12.271C1.25 12.271 1.25 12.2711 1.25 12.2711C1.25 12.2711 1.25 12.2712 1.25 12.2712C1.25 12.2713 1.25 12.2713 1.25 12.2714C1.25 12.2714 1.25 12.2715 1.25 12.2715C1.25 12.2716 1.25 12.2716 1.25 12.2717C1.25 12.2717 1.25 12.2717 1.25 12.2718C1.25 12.2718 1.25 12.2719 1.25 12.2719C1.25 12.272 1.25 12.272 1.25 12.2721C1.25 12.2721 1.25 12.2722 1.25 12.2722C1.25 12.2722 1.25 12.2723 1.25 12.2723C1.25 12.2724 1.25 12.2724 1.25 12.2725C1.25 12.2725 1.25 12.2726 1.25 12.2726C1.25 12.2727 1.25 12.2727 1.25 12.2728C1.25 12.2728 1.25 12.2728 1.25 12.2729C1.25 12.2729 1.25 12.273 1.25 12.273C1.25 12.2731 1.25 12.2731 1.25 12.2732C1.25 12.2732 1.25 12.2733 1.25 12.2733C1.25 12.2733 1.25 12.2734 1.25 12.2734C1.25 12.2735 1.25 12.2735 1.25 12.2736C1.25 12.2736 1.25 12.2737 1.25 12.2737C1.25 12.2738 1.25 12.2738 1.25 12.2738C1.25 12.2739 1.25 12.2739 1.25 12.274C1.25 12.274 1.25 12.2741 1.25 12.2741C1.25 12.2742 1.25 12.2742 1.25 12.2743C1.25 12.2743 1.25 12.2744 1.25 12.2744C1.25 12.2744 1.25 12.2745 1.25 12.2745C1.25 12.2746 1.25 12.2746 1.25 12.2747C1.25 12.2747 1.25 12.2748 1.25 12.2748C1.25 12.2749 1.25 12.2749 1.25 12.2749C1.25 12.275 1.25 12.275 1.25 12.2751C1.25 12.2751 1.25 12.2752 1.25 12.2752C1.25 12.2753 1.25 12.2753 1.25 12.2754C1.25 12.2754 1.25 12.2755 1.25 12.2755C1.25 12.2755 1.25 12.2756 1.25 12.2756C1.25 12.2757 1.25 12.2757 1.25 12.2758C1.25 12.2758 1.25 12.2759 1.25 12.2759C1.25 12.276 1.25 12.276 1.25 12.276C1.25 12.2761 1.25 12.2761 1.25 12.2762C1.25 12.2762 1.25 12.2763 1.25 12.2763C1.25 12.2764 1.25 12.2764 1.25 12.2765C1.25 12.2765 1.25 12.2766 1.25 12.2766C1.25 12.2766 1.25 12.2767 1.25 12.2767C1.25 12.2768 1.25 12.2768 1.25 12.2769C1.25 12.2769 1.25 12.277 1.25 12.277C1.25 12.2771 1.25 12.2771 1.25 12.2771C1.25 12.2772 1.25 12.2772 1.25 12.2773C1.25 12.2773 1.25 12.2774 1.25 12.2774C1.25 12.2775 1.25 12.2775 1.25 12.2776C1.25 12.2776 1.25 12.2776 1.25 12.2777C1.25 12.2777 1.25 12.2778 1.25 12.2778C1.25 12.2779 1.25 12.2779 1.25 12.278C1.25 12.278 1.25 12.2781 1.25 12.2781C1.25 12.2782 1.25 12.2782 1.25 12.2782C1.25 12.2783 1.25 12.2783 1.25 12.2784C1.25 12.2784 1.25 12.2785 1.25 12.2785C1.25 12.2786 1.25 12.2786 1.25 12.2787C1.25 12.2787 1.25 12.2787 1.25 12.2788C1.25 12.2788 1.25 12.2789 1.25 12.2789C1.25 12.279 1.25 12.279 1.25 12.2791C1.25 12.2791 1.25 12.2792 1.25 12.2792C1.25 12.2793 1.25 12.2793 1.25 12.2793C1.25 12.2794 1.25 12.2794 1.25 12.2795C1.25 12.2795 1.25 12.2796 1.25 12.2796C1.25 12.2797 1.25 12.2797 1.25 12.2798C1.25 12.2798 1.25 12.2798 1.25 12.2799C1.25 12.2799 1.25 12.28 1.25 12.28C1.25 12.2801 1.25 12.2801 1.25 12.2802C1.25 12.2802 1.25 12.2803 1.25 12.2803C1.25 12.2803 1.25 12.2804 1.25 12.2804C1.25 12.2805 1.25 12.2805 1.25 12.2806C1.25 12.2806 1.25 12.2807 1.25 12.2807C1.25 12.2808 1.25 12.2808 1.25 12.2809C1.25 12.2809 1.25 12.2809 1.25 12.281C1.25 12.281 1.25 12.2811 1.25 12.2811C1.25 12.2812 1.25 12.2812 1.25 12.2813C1.25 12.2813 1.25 12.2814 1.25 12.2814C1.25 12.2814 1.25 12.2815 1.25 12.2815C1.25 12.2816 1.25 12.2816 1.25 12.2817C1.25 12.2817 1.25 12.2818 1.25 12.2818C1.25 12.2819 1.25 12.2819 1.25 12.282C1.25 12.282 1.25 12.282 1.25 12.2821C1.25 12.2821 1.25 12.2822 1.25 12.2822C1.25 12.2823 1.25 12.2823 1.25 12.2824C1.25 12.2824 1.25 12.2825 1.25 12.2825C1.25 12.2825 1.25 12.2826 1.25 12.2826C1.25 12.2827 1.25 12.2827 1.25 12.2828C1.25 12.2828 1.25 12.2829 1.25 12.2829H2.25ZM2.25 12.2126L3.21087 12.4896L3.96087 9.88805L3 9.61104L2.03913 9.33403L1.28913 11.9356L2.25 12.2126ZM3 9.61104L3.9602 9.33171L3.2102 6.75358L2.25 7.03291L1.2898 7.31224L2.0398 9.89037L3 9.61104ZM2.25 7.03291H3.25C3.25 7.03287 3.25 7.03282 3.25 7.03278C3.25 7.03273 3.25 7.03268 3.25 7.03264C3.25 7.03259 3.25 7.03255 3.25 7.0325C3.25 7.03246 3.25 7.03241 3.25 7.03236C3.25 7.03232 3.25 7.03227 3.25 7.03223C3.25 7.03218 3.25 7.03214 3.25 7.03209C3.25 7.03204 3.25 7.032 3.25 7.03195C3.25 7.03191 3.25 7.03186 3.25 7.03181C3.25 7.03177 3.25 7.03172 3.25 7.03168C3.25 7.03163 3.25 7.03159 3.25 7.03154C3.25 7.03149 3.25 7.03145 3.25 7.0314C3.25 7.03136 3.25 7.03131 3.25 7.03126C3.25 7.03122 3.25 7.03117 3.25 7.03113C3.25 7.03108 3.25 7.03104 3.25 7.03099C3.25 7.03094 3.25 7.0309 3.25 7.03085C3.25 7.03081 3.25 7.03076 3.25 7.03071C3.25 7.03067 3.25 7.03062 3.25 7.03058C3.25 7.03053 3.25 7.03049 3.25 7.03044C3.25 7.03039 3.25 7.03035 3.25 7.0303C3.25 7.03026 3.25 7.03021 3.25 7.03017C3.25 7.03012 3.25 7.03007 3.25 7.03003C3.25 7.02998 3.25 7.02994 3.25 7.02989C3.25 7.02984 3.25 7.0298 3.25 7.02975C3.25 7.02971 3.25 7.02966 3.25 7.02961C3.25 7.02957 3.25 7.02952 3.25 7.02948C3.25 7.02943 3.25 7.02939 3.25 7.02934C3.25 7.02929 3.25 7.02925 3.25 7.0292C3.25 7.02916 3.25 7.02911 3.25 7.02906C3.25 7.02902 3.25 7.02897 3.25 7.02893C3.25 7.02888 3.25 7.02883 3.25 7.02879C3.25 7.02874 3.25 7.0287 3.25 7.02865C3.25 7.0286 3.25 7.02856 3.25 7.02851C3.25 7.02847 3.25 7.02842 3.25 7.02838C3.25 7.02833 3.25 7.02828 3.25 7.02824C3.25 7.02819 3.25 7.02815 3.25 7.0281C3.25 7.02805 3.25 7.02801 3.25 7.02796C3.25 7.02792 3.25 7.02787 3.25 7.02782C3.25 7.02778 3.25 7.02773 3.25 7.02769C3.25 7.02764 3.25 7.02759 3.25 7.02755C3.25 7.0275 3.25 7.02745 3.25 7.02741C3.25 7.02736 3.25 7.02732 3.25 7.02727C3.25 7.02722 3.25 7.02718 3.25 7.02713C3.25 7.02709 3.25 7.02704 3.25 7.02699C3.25 7.02695 3.25 7.0269 3.25 7.02686C3.25 7.02681 3.25 7.02676 3.25 7.02672C3.25 7.02667 3.25 7.02663 3.25 7.02658C3.25 7.02653 3.25 7.02649 3.25 7.02644C3.25 7.02639 3.25 7.02635 3.25 7.0263C3.25 7.02626 3.25 7.02621 3.25 7.02616C3.25 7.02612 3.25 7.02607 3.25 7.02602C3.25 7.02598 3.25 7.02593 3.25 7.02589C3.25 7.02584 3.25 7.02579 3.25 7.02575C3.25 7.0257 3.25 7.02566 3.25 7.02561C3.25 7.02556 3.25 7.02552 3.25 7.02547C3.25 7.02542 3.25 7.02538 3.25 7.02533C3.25 7.02528 3.25 7.02524 3.25 7.02519C3.25 7.02515 3.25 7.0251 3.25 7.02505C3.25 7.02501 3.25 7.02496 3.25 7.02491C3.25 7.02487 3.25 7.02482 3.25 7.02478C3.25 7.02473 3.25 7.02468 3.25 7.02464C3.25 7.02459 3.25 7.02454 3.25 7.0245C3.25 7.02445 3.25 7.0244 3.25 7.02436C3.25 7.02431 3.25 7.02426 3.25 7.02422C3.25 7.02417 3.25 7.02413 3.25 7.02408C3.25 7.02403 3.25 7.02399 3.25 7.02394C3.25 7.02389 3.25 7.02385 3.25 7.0238C3.25 7.02375 3.25 7.02371 3.25 7.02366C3.25 7.02361 3.25 7.02357 3.25 7.02352C3.25 7.02347 3.25 7.02343 3.25 7.02338C3.25 7.02333 3.25 7.02329 3.25 7.02324C3.25 7.02319 3.25 7.02315 3.25 7.0231C3.25 7.02305 3.25 7.02301 3.25 7.02296C3.25 7.02291 3.25 7.02287 3.25 7.02282C3.25 7.02277 3.25 7.02273 3.25 7.02268C3.25 7.02263 3.25 7.02259 3.25 7.02254C3.25 7.02249 3.25 7.02245 3.25 7.0224C3.25 7.02235 3.25 7.02231 3.25 7.02226C3.25 7.02221 3.25 7.02217 3.25 7.02212C3.25 7.02207 3.25 7.02203 3.25 7.02198C3.25 7.02193 3.25 7.02188 3.25 7.02184C3.25 7.02179 3.25 7.02174 3.25 7.0217C3.25 7.02165 3.25 7.0216 3.25 7.02156C3.25 7.02151 3.25 7.02146 3.25 7.02142C3.25 7.02137 3.25 7.02132 3.25 7.02127C3.25 7.02123 3.25 7.02118 3.25 7.02113C3.25 7.02109 3.25 7.02104 3.25 7.02099C3.25 7.02094 3.25 7.0209 3.25 7.02085C3.25 7.0208 3.25 7.02076 3.25 7.02071C3.25 7.02066 3.25 7.02062 3.25 7.02057C3.25 7.02052 3.25 7.02047 3.25 7.02043C3.25 7.02038 3.25 7.02033 3.25 7.02028C3.25 7.02024 3.25 7.02019 3.25 7.02014C3.25 7.0201 3.25 7.02005 3.25 7.02C3.25 7.01995 3.25 7.01991 3.25 7.01986C3.25 7.01981 3.25 7.01976 3.25 7.01972C3.25 7.01967 3.25 7.01962 3.25 7.01958C3.25 7.01953 3.25 7.01948 3.25 7.01943C3.25 7.01939 3.25 7.01934 3.25 7.01929C3.25 7.01924 3.25 7.0192 3.25 7.01915C3.25 7.0191 3.25 7.01905 3.25 7.01901C3.25 7.01896 3.25 7.01891 3.25 7.01886C3.25 7.01882 3.25 7.01877 3.25 7.01872C3.25 7.01867 3.25 7.01863 3.25 7.01858C3.25 7.01853 3.25 7.01848 3.25 7.01843C3.25 7.01839 3.25 7.01834 3.25 7.01829C3.25 7.01824 3.25 7.0182 3.25 7.01815C3.25 7.0181 3.25 7.01805 3.25 7.018C3.25 7.01796 3.25 7.01791 3.25 7.01786C3.25 7.01781 3.25 7.01777 3.25 7.01772C3.25 7.01767 3.25 7.01762 3.25 7.01757C3.25 7.01753 3.25 7.01748 3.25 7.01743C3.25 7.01738 3.25 7.01733 3.25 7.01729C3.25 7.01724 3.25 7.01719 3.25 7.01714C3.25 7.0171 3.25 7.01705 3.25 7.017C3.25 7.01695 3.25 7.0169 3.25 7.01685C3.25 7.01681 3.25 7.01676 3.25 7.01671C3.25 7.01666 3.25 7.01661 3.25 7.01657C3.25 7.01652 3.25 7.01647 3.25 7.01642C3.25 7.01637 3.25 7.01632 3.25 7.01628C3.25 7.01623 3.25 7.01618 3.25 7.01613C3.25 7.01608 3.25 7.01604 3.25 7.01599C3.25 7.01594 3.25 7.01589 3.25 7.01584C3.25 7.01579 3.25 7.01575 3.25 7.0157C3.25 7.01565 3.25 7.0156 3.25 7.01555C3.25 7.0155 3.25 7.01545 3.25 7.01541C3.25 7.01536 3.25 7.01531 3.25 7.01526C3.25 7.01521 3.25 7.01516 3.25 7.01511C3.25 7.01507 3.25 7.01502 3.25 7.01497C3.25 7.01492 3.25 7.01487 3.25 7.01482C3.25 7.01477 3.25 7.01473 3.25 7.01468C3.25 7.01463 3.25 7.01458 3.25 7.01453C3.25 7.01448 3.25 7.01443 3.25 7.01438C3.25 7.01434 3.25 7.01429 3.25 7.01424C3.25 7.01419 3.25 7.01414 3.25 7.01409C3.25 7.01404 3.25 7.01399 3.25 7.01394C3.25 7.0139 3.25 7.01385 3.25 7.0138C3.25 7.01375 3.25 7.0137 3.25 7.01365C3.25 7.0136 3.25 7.01355 3.25 7.0135C3.25 7.01345 3.25 7.0134 3.25 7.01336C3.25 7.01331 3.25 7.01326 3.25 7.01321C3.25 7.01316 3.25 7.01311 3.25 7.01306C3.25 7.01301 3.25 7.01296 3.25 7.01291C3.25 7.01286 3.25 7.01281 3.25 7.01276C3.25 7.01272 3.25 7.01267 3.25 7.01262C3.25 7.01257 3.25 7.01252 3.25 7.01247C3.25 7.01242 3.25 7.01237 3.25 7.01232C3.25 7.01227 3.25 7.01222 3.25 7.01217C3.25 7.01212 3.25 7.01207 3.25 7.01202C3.25 7.01197 3.25 7.01192 3.25 7.01187C3.25 7.01182 3.25 7.01177 3.25 7.01172C3.25 7.01167 3.25 7.01163 3.25 7.01158C3.25 7.01153 3.25 7.01148 3.25 7.01143C3.25 7.01138 3.25 7.01133 3.25 7.01128C3.25 7.01123 3.25 7.01118 3.25 7.01113C3.25 7.01108 3.25 7.01103 3.25 7.01098C3.25 7.01093 3.25 7.01088 3.25 7.01083C3.25 7.01078 3.25 7.01073 3.25 7.01068C3.25 7.01063 3.25 7.01058 3.25 7.01053C3.25 7.01048 3.25 7.01043 3.25 7.01038C3.25 7.01033 3.25 7.01028 3.25 7.01023C3.25 7.01018 3.25 7.01012 3.25 7.01007C3.25 7.01002 3.25 7.00997 3.25 7.00992C3.25 7.00987 3.25 7.00982 3.25 7.00977C3.25 7.00972 3.25 7.00967 3.25 7.00962C3.25 7.00957 3.25 7.00952 3.25 7.00947C3.25 7.00942 3.25 7.00937 3.25 7.00932C3.25 7.00927 3.25 7.00922 3.25 7.00917C3.25 7.00912 3.25 7.00906 3.25 7.00901C3.25 7.00896 3.25 7.00891 3.25 7.00886C3.25 7.00881 3.25 7.00876 3.25 7.00871C3.25 7.00866 3.25 7.00861 3.25 7.00856C3.25 7.00851 3.25 7.00845 3.25 7.0084C3.25 7.00835 3.25 7.0083 3.25 7.00825C3.25 7.0082 3.25 7.00815 3.25 7.0081C3.25 7.00805 3.25 7.008 3.25 7.00794C3.25 7.00789 3.25 7.00784 3.25 7.00779C3.25 7.00774 3.25 7.00769 3.25 7.00764C3.25 7.00759 3.25 7.00753 3.25 7.00748C3.25 7.00743 3.25 7.00738 3.25 7.00733C3.25 7.00728 3.25 7.00723 3.25 7.00718C3.25 7.00712 3.25 7.00707 3.25 7.00702C3.25 7.00697 3.25 7.00692 3.25 7.00687C3.25 7.00681 3.25 7.00676 3.25 7.00671C3.25 7.00666 3.25 7.00661 3.25 7.00656C3.25 7.00651 3.25 7.00645 3.25 7.0064C3.25 7.00635 3.25 7.0063 3.25 7.00625C3.25 7.00619 3.25 7.00614 3.25 7.00609C3.25 7.00604 3.25 7.00599 3.25 7.00594C3.25 7.00588 3.25 7.00583 3.25 7.00578C3.25 7.00573 3.25 7.00567 3.25 7.00562C3.25 7.00557 3.25 7.00552 3.25 7.00547C3.25 7.00541 3.25 7.00536 3.25 7.00531C3.25 7.00526 3.25 7.00521 3.25 7.00515C3.25 7.0051 3.25 7.00505 3.25 7.005C3.25 7.00494 3.25 7.00489 3.25 7.00484C3.25 7.00479 3.25 7.00473 3.25 7.00468C3.25 7.00463 3.25 7.00458 3.25 7.00452C3.25 7.00447 3.25 7.00442 3.25 7.00437C3.25 7.00431 3.25 7.00426 3.25 7.00421C3.25 7.00416 3.25 7.0041 3.25 7.00405C3.25 7.004 3.25 7.00394 3.25 7.00389C3.25 7.00384 3.25 7.00379 3.25 7.00373C3.25 7.00368 3.25 7.00363 3.25 7.00357C3.25 7.00352 3.25 7.00347 3.25 7.00342C3.25 7.00336 3.25 7.00331 3.25 7.00326C3.25 7.0032 3.25 7.00315 3.25 7.0031C3.25 7.00304 3.25 7.00299 3.25 7.00294C3.25 7.00288 3.25 7.00283 3.25 7.00278C3.25 7.00272 3.25 7.00267 3.25 7.00262C3.25 7.00256 3.25 7.00251 3.25 7.00246C3.25 7.0024 3.25 7.00235 3.25 7.0023C3.25 7.00224 3.25 7.00219 3.25 7.00214C3.25 7.00208 3.25 7.00203 3.25 7.00197C3.25 7.00192 3.25 7.00187 3.25 7.00181C3.25 7.00176 3.25 7.00171 3.25 7.00165C3.25 7.0016 3.25 7.00154 3.25 7.00149C3.25 7.00144 3.25 7.00138 3.25 7.00133C3.25 7.00127 3.25 7.00122 3.25 7.00117C3.25 7.00111 3.25 7.00106 3.25 7.001C3.25 7.00095 3.25 7.0009 3.25 7.00084C3.25 7.00079 3.25 7.00073 3.25 7.00068C3.25 7.00062 3.25 7.00057 3.25 7.00052C3.25 7.00046 3.25 7.00041 3.25 7.00035C3.25 7.0003 3.25 7.00024 3.25 7.00019C3.25 7.00013 3.25 7.00008 3.25 7.00003C3.25 6.99997 3.25 6.99992 3.25 6.99986C3.25 6.99981 3.25 6.99975 3.25 6.9997C3.25 6.99964 3.25 6.99959 3.25 6.99953C3.25 6.99948 3.25 6.99942 3.25 6.99937C3.25 6.99931 3.25 6.99926 3.25 6.9992C3.25 6.99915 3.25 6.99909 3.25 6.99904C3.25 6.99898 3.25 6.99893 3.25 6.99887C3.25 6.99882 3.25 6.99876 3.25 6.99871C3.25 6.99865 3.25 6.9986 3.25 6.99854C3.25 6.99849 3.25 6.99843 3.25 6.99837C3.25 6.99832 3.25 6.99826 3.25 6.99821C3.25 6.99815 3.25 6.9981 3.25 6.99804C3.25 6.99799 3.25 6.99793 3.25 6.99787C3.25 6.99782 3.25 6.99776 3.25 6.99771C3.25 6.99765 3.25 6.9976 3.25 6.99754C3.25 6.99748 3.25 6.99743 3.25 6.99737C3.25 6.99732 3.25 6.99726 3.25 6.9972C3.25 6.99715 3.25 6.99709 3.25 6.99704C3.25 6.99698 3.25 6.99692 3.25 6.99687C3.25 6.99681 3.25 6.99676 3.25 6.9967C3.25 6.99664 3.25 6.99659 3.25 6.99653C3.25 6.99647 3.25 6.99642 3.25 6.99636C3.25 6.9963 3.25 6.99625 3.25 6.99619C3.25 6.99614 3.25 6.99608 3.25 6.99602C3.25 6.99597 3.25 6.99591 3.25 6.99585C3.25 6.9958 3.25 6.99574 3.25 6.99568C3.25 6.99563 3.25 6.99557 3.25 6.99551C3.25 6.99545 3.25 6.9954 3.25 6.99534C3.25 6.99528 3.25 6.99523 3.25 6.99517C3.25 6.99511 3.25 6.99506 3.25 6.995C3.25 6.99494 3.25 6.99488 3.25 6.99483C3.25 6.99477 3.25 6.99471 3.25 6.99466C3.25 6.9946 3.25 6.99454 3.25 6.99448C3.25 6.99443 3.25 6.99437 3.25 6.99431C3.25 6.99425 3.25 6.9942 3.25 6.99414C3.25 6.99408 3.25 6.99402 3.25 6.99397C3.25 6.99391 3.25 6.99385 3.25 6.99379C3.25 6.99373 3.25 6.99368 3.25 6.99362C3.25 6.99356 3.25 6.9935 3.25 6.99345C3.25 6.99339 3.25 6.99333 3.25 6.99327C3.25 6.99321 3.25 6.99316 3.25 6.9931C3.25 6.99304 3.25 6.99298 3.25 6.99292C3.25 6.99286 3.25 6.99281 3.25 6.99275C3.25 6.99269 3.25 6.99263 3.25 6.99257C3.25 6.99251 3.25 6.99246 3.25 6.9924C3.25 6.99234 3.25 6.99228 3.25 6.99222C3.25 6.99216 3.25 6.9921 3.25 6.99205C3.25 6.99199 3.25 6.99193 3.25 6.99187C3.25 6.99181 3.25 6.99175 3.25 6.99169C3.25 6.99163 3.25 6.99158 3.25 6.99152C3.25 6.99146 3.25 6.9914 3.25 6.99134C3.25 6.99128 3.25 6.99122 3.25 6.99116C3.25 6.9911 3.25 6.99104 3.25 6.99098C3.25 6.99092 3.25 6.99087 3.25 6.99081C3.25 6.99075 3.25 6.99069 3.25 6.99063C3.25 6.99057 3.25 6.99051 3.25 6.99045C3.25 6.99039 3.25 6.99033 3.25 6.99027C3.25 6.99021 3.25 6.99015 3.25 6.99009C3.25 6.99003 3.25 6.98997 3.25 6.98991C3.25 6.98985 3.25 6.98979 3.25 6.98973C3.25 6.98967 3.25 6.98961 3.25 6.98955C3.25 6.98949 3.25 6.98943 3.25 6.98937C3.25 6.98931 3.25 6.98925 3.25 6.98919C3.25 6.98913 3.25 6.98907 3.25 6.98901C3.25 6.98895 3.25 6.98889 3.25 6.98883C3.25 6.98877 3.25 6.98871 3.25 6.98865C3.25 6.98859 3.25 6.98853 3.25 6.98847C3.25 6.9884 3.25 6.98834 3.25 6.98828C3.25 6.98822 3.25 6.98816 3.25 6.9881C3.25 6.98804 3.25 6.98798 3.25 6.98792C3.25 6.98786 3.25 6.9878 3.25 6.98774C3.25 6.98767 3.25 6.98761 3.25 6.98755C3.25 6.98749 3.25 6.98743 3.25 6.98737C3.25 6.98731 3.25 6.98725 3.25 6.98718C3.25 6.98712 3.25 6.98706 3.25 6.987C3.25 6.98694 3.25 6.98688 3.25 6.98681C3.25 6.98675 3.25 6.98669 3.25 6.98663C3.25 6.98657 3.25 6.98651 3.25 6.98644C3.25 6.98638 3.25 6.98632 3.25 6.98626C3.25 6.9862 3.25 6.98614 3.25 6.98607C3.25 6.98601 3.25 6.98595 3.25 6.98589C3.25 6.98583 3.25 6.98576 3.25 6.9857C3.25 6.98564 3.25 6.98558 3.25 6.98551C3.25 6.98545 3.25 6.98539 3.25 6.98533C3.25 6.98526 3.25 6.9852 3.25 6.98514C3.25 6.98508 3.25 6.98501 3.25 6.98495C3.25 6.98489 3.25 6.98483 3.25 6.98476C3.25 6.9847 3.25 6.98464 3.25 6.98457C3.25 6.98451 3.25 6.98445 3.25 6.98439C3.25 6.98432 3.25 6.98426 3.25 6.9842C3.25 6.98413 3.25 6.98407 3.25 6.98401C3.25 6.98394 3.25 6.98388 3.25 6.98382C3.25 6.98375 3.25 6.98369 3.25 6.98363C3.25 6.98356 3.25 6.9835 3.25 6.98344C3.25 6.98337 3.25 6.98331 3.25 6.98325C3.25 6.98318 3.25 6.98312 3.25 6.98305C3.25 6.98299 3.25 6.98293 3.25 6.98286C3.25 6.9828 3.25 6.98274 3.25 6.98267C3.25 6.98261 3.25 6.98254 3.25 6.98248C3.25 6.98242 3.25 6.98235 3.25 6.98229C3.25 6.98222 3.25 6.98216 3.25 6.98209C3.25 6.98203 3.25 6.98197 3.25 6.9819C3.25 6.98184 3.25 6.98177 3.25 6.98171C3.25 6.98164 3.25 6.98158 3.25 6.98151C3.25 6.98145 3.25 6.98138 3.25 6.98132C3.25 6.98125 3.25 6.98119 3.25 6.98112C3.25 6.98106 3.25 6.98099 3.25 6.98093C3.25 6.98086 3.25 6.9808 3.25 6.98073C3.25 6.98067 3.25 6.9806 3.25 6.98054C3.25 6.98047 3.25 6.98041 3.25 6.98034C3.25 6.98028 3.25 6.98021 3.25 6.98015C3.25 6.98008 3.25 6.98002 3.25 6.97995C3.25 6.97988 3.25 6.97982 3.25 6.97975C3.25 6.97969 3.25 6.97962 3.25 6.97956C3.25 6.97949 3.25 6.97942 3.25 6.97936C3.25 6.97929 3.25 6.97923 3.25 6.97916C3.25 6.97909 3.25 6.97903 3.25 6.97896C3.25 6.9789 3.25 6.97883 3.25 6.97876C3.25 6.9787 3.25 6.97863 3.25 6.97856C3.25 6.9785 3.25 6.97843 3.25 6.97836C3.25 6.9783 3.25 6.97823 3.25 6.97816C3.25 6.9781 3.25 6.97803 3.25 6.97796C3.25 6.9779 3.25 6.97783 3.25 6.97776C3.25 6.9777 3.25 6.97763 3.25 6.97756C3.25 6.9775 3.25 6.97743 3.25 6.97736C3.25 6.97729 3.25 6.97723 3.25 6.97716C3.25 6.97709 3.25 6.97702 3.25 6.97696C3.25 6.97689 3.25 6.97682 3.25 6.97675C3.25 6.97669 3.25 6.97662 3.25 6.97655C3.25 6.97648 3.25 6.97642 3.25 6.97635C3.25 6.97628 3.25 6.97621 3.25 6.97615C3.25 6.97608 3.25 6.97601 3.25 6.97594C3.25 6.97587 3.25 6.97581 3.25 6.97574C3.25 6.97567 3.25 6.9756 3.25 6.97553C3.25 6.97546 3.25 6.9754 3.25 6.97533C3.25 6.97526 3.25 6.97519 3.25 6.97512C3.25 6.97505 3.25 6.97499 3.25 6.97492C3.25 6.97485 3.25 6.97478 3.25 6.97471C3.25 6.97464 3.25 6.97457 3.25 6.9745C3.25 6.97443 3.25 6.97437 3.25 6.9743C3.25 6.97423 3.25 6.97416 3.25 6.97409C3.25 6.97402 3.25 6.97395 3.25 6.97388C3.25 6.97381 3.25 6.97374 3.25 6.97367C3.25 6.9736 3.25 6.97353 3.25 6.97346C3.25 6.9734 3.25 6.97333 3.25 6.97326C3.25 6.97319 3.25 6.97312 3.25 6.97305C3.25 6.97298 3.25 6.97291 3.25 6.97284C3.25 6.97277 3.25 6.9727 3.25 6.97263C3.25 6.97256 3.25 6.97249 3.25 6.97242C3.25 6.97235 3.25 6.97228 3.25 6.97221C3.25 6.97214 3.25 6.97207 3.25 6.97199C3.25 6.97192 3.25 6.97185 3.25 6.97178C3.25 6.97171 3.25 6.97164 3.25 6.97157C3.25 6.9715 3.25 6.97143 3.25 6.97136C3.25 6.97129 3.25 6.97122 3.25 6.97115C3.25 6.97108 3.25 6.971 3.25 6.97093C3.25 6.97086 3.25 6.97079 3.25 6.97072C3.25 6.97065 3.25 6.97058 3.25 6.97051C3.25 6.97043 3.25 6.97036 3.25 6.97029C3.25 6.97022 3.25 6.97015 3.25 6.97008C3.25 6.97 3.25 6.96993 3.25 6.96986C3.25 6.96979 3.25 6.96972 3.25 6.96965C3.25 6.96957 3.25 6.9695 3.25 6.96943C3.25 6.96936 3.25 6.96929 3.25 6.96921C3.25 6.96914 3.25 6.96907 3.25 6.969C3.25 6.96892 3.25 6.96885 3.25 6.96878C3.25 6.96871 3.25 6.96863 3.25 6.96856C3.25 6.96849 3.25 6.96842 3.25 6.96834C3.25 6.96827 3.25 6.9682 3.25 6.96812C3.25 6.96805 3.25 6.96798 3.25 6.96791C3.25 6.96783 3.25 6.96776 3.25 6.96769C3.25 6.96761 3.25 6.96754 3.25 6.96747C3.25 6.96739 3.25 6.96732 3.25 6.96725C3.25 6.96717 3.25 6.9671 3.25 6.96703C3.25 6.96695 3.25 6.96688 3.25 6.96681C3.25 6.96673 3.25 6.96666 3.25 6.96658C3.25 6.96651 3.25 6.96644 3.25 6.96636C3.25 6.96629 3.25 6.96621 3.25 6.96614C3.25 6.96607 3.25 6.96599 3.25 6.96592C3.25 6.96584 3.25 6.96577 3.25 6.96569C3.25 6.96562 3.25 6.96555 3.25 6.96547C3.25 6.9654 3.25 6.96532 3.25 6.96525C3.25 6.96517 3.25 6.9651 3.25 6.96502C3.25 6.96495 3.25 6.96487 3.25 6.9648C3.25 6.96472 3.25 6.96465 3.25 6.96457C3.25 6.9645 3.25 6.96442 3.25 6.96435C3.25 6.96427 3.25 6.9642 3.25 6.96412C3.25 6.96405 3.25 6.96397 3.25 6.96389C3.25 6.96382 3.25 6.96374 3.25 6.96367C3.25 6.96359 3.25 6.96352 3.25 6.96344C3.25 6.96337 3.25 6.96329 3.25 6.96321C3.25 6.96314 3.25 6.96306 3.25 6.96298C3.25 6.96291 3.25 6.96283 3.25 6.96276C3.25 6.96268 3.25 6.9626 3.25 6.96253C3.25 6.96245 3.25 6.96237 3.25 6.9623C3.25 6.96222 3.25 6.96214 3.25 6.96207C3.25 6.96199 3.25 6.96191 3.25 6.96184C3.25 6.96176 3.25 6.96168 3.25 6.96161C3.25 6.96153 3.25 6.96145 3.25 6.96138C3.25 6.9613 3.25 6.96122 3.25 6.96114C3.25 6.96107 3.25 6.96099 3.25 6.96091C3.25 6.96083 3.25 6.96076 3.25 6.96068C3.25 6.9606 3.25 6.96052 3.25 6.96045C3.25 6.96037 3.25 6.96029 3.25 6.96021C3.25 6.96013 3.25 6.96006 3.25 6.95998C3.25 6.9599 3.25 6.95982 3.25 6.95974C3.25 6.95967 3.25 6.95959 3.25 6.95951C3.25 6.95943 3.25 6.95935 3.25 6.95927C3.25 6.95919 3.25 6.95912 3.25 6.95904C3.25 6.95896 3.25 6.95888 3.25 6.9588C3.25 6.95872 3.25 6.95864 3.25 6.95856C3.25 6.95849 3.25 6.95841 3.25 6.95833C3.25 6.95825 3.25 6.95817 3.25 6.95809C3.25 6.95801 3.25 6.95793 3.25 6.95785C3.25 6.95777 3.25 6.95769 3.25 6.95761C3.25 6.95753 3.25 6.95745 3.25 6.95737C3.25 6.95729 3.25 6.95721 3.25 6.95713C3.25 6.95706 3.25 6.95697 3.25 6.95689C3.25 6.95681 3.25 6.95673 3.25 6.95665C3.25 6.95657 3.25 6.95649 3.25 6.95641C3.25 6.95633 3.25 6.95625 3.25 6.95617C3.25 6.95609 3.25 6.95601 3.25 6.95593C3.25 6.95585 3.25 6.95577 3.25 6.95569C3.25 6.95561 3.25 6.95553 3.25 6.95545C3.25 6.95536 3.25 6.95528 3.25 6.9552C3.25 6.95512 3.25 6.95504 3.25 6.95496C3.25 6.95488 3.25 6.9548 3.25 6.95471C3.25 6.95463 3.25 6.95455 3.25 6.95447C3.25 6.95439 3.25 6.95431 3.25 6.95423C3.25 6.95414 3.25 6.95406 3.25 6.95398C3.25 6.9539 3.25 6.95382 3.25 6.95373C3.25 6.95365 3.25 6.95357 3.25 6.95349C3.25 6.9534 3.25 6.95332 3.25 6.95324C3.25 6.95316 3.25 6.95308 3.25 6.95299C3.25 6.95291 3.25 6.95283 3.25 6.95274C3.25 6.95266 3.25 6.95258 3.25 6.9525C3.25 6.95241 3.25 6.95233 3.25 6.95225C3.25 6.95216 3.25 6.95208 3.25 6.952C3.25 6.95191 3.25 6.95183 3.25 6.95175C3.25 6.95166 3.25 6.95158 3.25 6.9515C3.25 6.95141 3.25 6.95133 3.25 6.95125C3.25 6.95116 3.25 6.95108 3.25 6.951C3.25 6.95091 3.25 6.95083 3.25 6.95074C3.25 6.95066 3.25 6.95058 3.25 6.95049C3.25 6.95041 3.25 6.95032 3.25 6.95024C3.25 6.95015 3.25 6.95007 3.25 6.94999C3.25 6.9499 3.25 6.94982 3.25 6.94973C3.25 6.94965 3.25 6.94956 3.25 6.94948C3.25 6.94939 3.25 6.94931 3.25 6.94922C3.25 6.94914 3.25 6.94905 3.25 6.94897C3.25 6.94888 3.25 6.9488 3.25 6.94871C3.25 6.94863 3.25 6.94854 3.25 6.94846C3.25 6.94837 3.25 6.94828 3.25 6.9482C3.25 6.94811 3.25 6.94803 3.25 6.94794C3.25 6.94786 3.25 6.94777 3.25 6.94768C3.25 6.9476 3.25 6.94751 3.25 6.94742C3.25 6.94734 3.25 6.94725 3.25 6.94717C3.25 6.94708 3.25 6.94699 3.25 6.94691C3.25 6.94682 3.25 6.94673 3.25 6.94665C3.25 6.94656 3.25 6.94647 3.25 6.94639C3.25 6.9463 3.25 6.94621 3.25 6.94613C3.25 6.94604 3.25 6.94595 3.25 6.94586C3.25 6.94578 3.25 6.94569 3.25 6.9456C3.25 6.94552 3.25 6.94543 3.25 6.94534C3.25 6.94525 3.25 6.94517 3.25 6.94508C3.25 6.94499 3.25 6.9449 3.25 6.94481C3.25 6.94473 3.25 6.94464 3.25 6.94455C3.25 6.94446 3.25 6.94437 3.25 6.94429C3.25 6.9442 3.25 6.94411 3.25 6.94402C3.25 6.94393 3.25 6.94384 3.25 6.94376C3.25 6.94367 3.25 6.94358 3.25 6.94349C3.25 6.9434 3.25 6.94331 3.25 6.94322C3.25 6.94313 3.25 6.94305 3.25 6.94296C3.25 6.94287 3.25 6.94278 3.25 6.94269C3.25 6.9426 3.25 6.94251 3.25 6.94242C3.25 6.94233 3.25 6.94224 3.25 6.94215C3.25 6.94206 3.25 6.94197 3.25 6.94188C3.25 6.94179 3.25 6.9417 3.25 6.94161C3.25 6.94152 3.25 6.94143 3.25 6.94134C3.25 6.94125 3.25 6.94116 3.25 6.94107C3.25 6.94098 3.25 6.94089 3.25 6.9408C3.25 6.94071 3.25 6.94062 3.25 6.94053C3.25 6.94044 3.25 6.94035 3.25 6.94026C3.25 6.94017 3.25 6.94008 3.25 6.93998C3.25 6.93989 3.25 6.9398 3.25 6.93971C3.25 6.93962 3.25 6.93953 3.25 6.93944C3.25 6.93935 3.25 6.93925 3.25 6.93916H2.25H1.25C1.25 6.93925 1.25 6.93935 1.25 6.93944C1.25 6.93953 1.25 6.93962 1.25 6.93971C1.25 6.9398 1.25 6.93989 1.25 6.93998C1.25 6.94008 1.25 6.94017 1.25 6.94026C1.25 6.94035 1.25 6.94044 1.25 6.94053C1.25 6.94062 1.25 6.94071 1.25 6.9408C1.25 6.94089 1.25 6.94098 1.25 6.94107C1.25 6.94116 1.25 6.94125 1.25 6.94134C1.25 6.94143 1.25 6.94152 1.25 6.94161C1.25 6.9417 1.25 6.94179 1.25 6.94188C1.25 6.94197 1.25 6.94206 1.25 6.94215C1.25 6.94224 1.25 6.94233 1.25 6.94242C1.25 6.94251 1.25 6.9426 1.25 6.94269C1.25 6.94278 1.25 6.94287 1.25 6.94296C1.25 6.94305 1.25 6.94313 1.25 6.94322C1.25 6.94331 1.25 6.9434 1.25 6.94349C1.25 6.94358 1.25 6.94367 1.25 6.94376C1.25 6.94384 1.25 6.94393 1.25 6.94402C1.25 6.94411 1.25 6.9442 1.25 6.94429C1.25 6.94437 1.25 6.94446 1.25 6.94455C1.25 6.94464 1.25 6.94473 1.25 6.94481C1.25 6.9449 1.25 6.94499 1.25 6.94508C1.25 6.94517 1.25 6.94525 1.25 6.94534C1.25 6.94543 1.25 6.94552 1.25 6.9456C1.25 6.94569 1.25 6.94578 1.25 6.94586C1.25 6.94595 1.25 6.94604 1.25 6.94613C1.25 6.94621 1.25 6.9463 1.25 6.94639C1.25 6.94647 1.25 6.94656 1.25 6.94665C1.25 6.94673 1.25 6.94682 1.25 6.94691C1.25 6.94699 1.25 6.94708 1.25 6.94717C1.25 6.94725 1.25 6.94734 1.25 6.94742C1.25 6.94751 1.25 6.9476 1.25 6.94768C1.25 6.94777 1.25 6.94786 1.25 6.94794C1.25 6.94803 1.25 6.94811 1.25 6.9482C1.25 6.94828 1.25 6.94837 1.25 6.94846C1.25 6.94854 1.25 6.94863 1.25 6.94871C1.25 6.9488 1.25 6.94888 1.25 6.94897C1.25 6.94905 1.25 6.94914 1.25 6.94922C1.25 6.94931 1.25 6.94939 1.25 6.94948C1.25 6.94956 1.25 6.94965 1.25 6.94973C1.25 6.94982 1.25 6.9499 1.25 6.94999C1.25 6.95007 1.25 6.95015 1.25 6.95024C1.25 6.95032 1.25 6.95041 1.25 6.95049C1.25 6.95058 1.25 6.95066 1.25 6.95074C1.25 6.95083 1.25 6.95091 1.25 6.951C1.25 6.95108 1.25 6.95116 1.25 6.95125C1.25 6.95133 1.25 6.95141 1.25 6.9515C1.25 6.95158 1.25 6.95166 1.25 6.95175C1.25 6.95183 1.25 6.95191 1.25 6.952C1.25 6.95208 1.25 6.95216 1.25 6.95225C1.25 6.95233 1.25 6.95241 1.25 6.9525C1.25 6.95258 1.25 6.95266 1.25 6.95274C1.25 6.95283 1.25 6.95291 1.25 6.95299C1.25 6.95308 1.25 6.95316 1.25 6.95324C1.25 6.95332 1.25 6.9534 1.25 6.95349C1.25 6.95357 1.25 6.95365 1.25 6.95373C1.25 6.95382 1.25 6.9539 1.25 6.95398C1.25 6.95406 1.25 6.95414 1.25 6.95423C1.25 6.95431 1.25 6.95439 1.25 6.95447C1.25 6.95455 1.25 6.95463 1.25 6.95471C1.25 6.9548 1.25 6.95488 1.25 6.95496C1.25 6.95504 1.25 6.95512 1.25 6.9552C1.25 6.95528 1.25 6.95536 1.25 6.95545C1.25 6.95553 1.25 6.95561 1.25 6.95569C1.25 6.95577 1.25 6.95585 1.25 6.95593C1.25 6.95601 1.25 6.95609 1.25 6.95617C1.25 6.95625 1.25 6.95633 1.25 6.95641C1.25 6.95649 1.25 6.95657 1.25 6.95665C1.25 6.95673 1.25 6.95681 1.25 6.95689C1.25 6.95697 1.25 6.95706 1.25 6.95713C1.25 6.95721 1.25 6.95729 1.25 6.95737C1.25 6.95745 1.25 6.95753 1.25 6.95761C1.25 6.95769 1.25 6.95777 1.25 6.95785C1.25 6.95793 1.25 6.95801 1.25 6.95809C1.25 6.95817 1.25 6.95825 1.25 6.95833C1.25 6.95841 1.25 6.95849 1.25 6.95856C1.25 6.95864 1.25 6.95872 1.25 6.9588C1.25 6.95888 1.25 6.95896 1.25 6.95904C1.25 6.95912 1.25 6.95919 1.25 6.95927C1.25 6.95935 1.25 6.95943 1.25 6.95951C1.25 6.95959 1.25 6.95967 1.25 6.95974C1.25 6.95982 1.25 6.9599 1.25 6.95998C1.25 6.96006 1.25 6.96013 1.25 6.96021C1.25 6.96029 1.25 6.96037 1.25 6.96045C1.25 6.96052 1.25 6.9606 1.25 6.96068C1.25 6.96076 1.25 6.96083 1.25 6.96091C1.25 6.96099 1.25 6.96107 1.25 6.96114C1.25 6.96122 1.25 6.9613 1.25 6.96138C1.25 6.96145 1.25 6.96153 1.25 6.96161C1.25 6.96168 1.25 6.96176 1.25 6.96184C1.25 6.96191 1.25 6.96199 1.25 6.96207C1.25 6.96214 1.25 6.96222 1.25 6.9623C1.25 6.96237 1.25 6.96245 1.25 6.96253C1.25 6.9626 1.25 6.96268 1.25 6.96276C1.25 6.96283 1.25 6.96291 1.25 6.96298C1.25 6.96306 1.25 6.96314 1.25 6.96321C1.25 6.96329 1.25 6.96337 1.25 6.96344C1.25 6.96352 1.25 6.96359 1.25 6.96367C1.25 6.96374 1.25 6.96382 1.25 6.96389C1.25 6.96397 1.25 6.96405 1.25 6.96412C1.25 6.9642 1.25 6.96427 1.25 6.96435C1.25 6.96442 1.25 6.9645 1.25 6.96457C1.25 6.96465 1.25 6.96472 1.25 6.9648C1.25 6.96487 1.25 6.96495 1.25 6.96502C1.25 6.9651 1.25 6.96517 1.25 6.96525C1.25 6.96532 1.25 6.9654 1.25 6.96547C1.25 6.96555 1.25 6.96562 1.25 6.96569C1.25 6.96577 1.25 6.96584 1.25 6.96592C1.25 6.96599 1.25 6.96607 1.25 6.96614C1.25 6.96621 1.25 6.96629 1.25 6.96636C1.25 6.96644 1.25 6.96651 1.25 6.96658C1.25 6.96666 1.25 6.96673 1.25 6.96681C1.25 6.96688 1.25 6.96695 1.25 6.96703C1.25 6.9671 1.25 6.96717 1.25 6.96725C1.25 6.96732 1.25 6.96739 1.25 6.96747C1.25 6.96754 1.25 6.96761 1.25 6.96769C1.25 6.96776 1.25 6.96783 1.25 6.96791C1.25 6.96798 1.25 6.96805 1.25 6.96812C1.25 6.9682 1.25 6.96827 1.25 6.96834C1.25 6.96842 1.25 6.96849 1.25 6.96856C1.25 6.96863 1.25 6.96871 1.25 6.96878C1.25 6.96885 1.25 6.96892 1.25 6.969C1.25 6.96907 1.25 6.96914 1.25 6.96921C1.25 6.96929 1.25 6.96936 1.25 6.96943C1.25 6.9695 1.25 6.96957 1.25 6.96965C1.25 6.96972 1.25 6.96979 1.25 6.96986C1.25 6.96993 1.25 6.97 1.25 6.97008C1.25 6.97015 1.25 6.97022 1.25 6.97029C1.25 6.97036 1.25 6.97043 1.25 6.97051C1.25 6.97058 1.25 6.97065 1.25 6.97072C1.25 6.97079 1.25 6.97086 1.25 6.97093C1.25 6.971 1.25 6.97108 1.25 6.97115C1.25 6.97122 1.25 6.97129 1.25 6.97136C1.25 6.97143 1.25 6.9715 1.25 6.97157C1.25 6.97164 1.25 6.97171 1.25 6.97178C1.25 6.97185 1.25 6.97192 1.25 6.97199C1.25 6.97207 1.25 6.97214 1.25 6.97221C1.25 6.97228 1.25 6.97235 1.25 6.97242C1.25 6.97249 1.25 6.97256 1.25 6.97263C1.25 6.9727 1.25 6.97277 1.25 6.97284C1.25 6.97291 1.25 6.97298 1.25 6.97305C1.25 6.97312 1.25 6.97319 1.25 6.97326C1.25 6.97333 1.25 6.9734 1.25 6.97346C1.25 6.97353 1.25 6.9736 1.25 6.97367C1.25 6.97374 1.25 6.97381 1.25 6.97388C1.25 6.97395 1.25 6.97402 1.25 6.97409C1.25 6.97416 1.25 6.97423 1.25 6.9743C1.25 6.97437 1.25 6.97443 1.25 6.9745C1.25 6.97457 1.25 6.97464 1.25 6.97471C1.25 6.97478 1.25 6.97485 1.25 6.97492C1.25 6.97499 1.25 6.97505 1.25 6.97512C1.25 6.97519 1.25 6.97526 1.25 6.97533C1.25 6.9754 1.25 6.97546 1.25 6.97553C1.25 6.9756 1.25 6.97567 1.25 6.97574C1.25 6.97581 1.25 6.97587 1.25 6.97594C1.25 6.97601 1.25 6.97608 1.25 6.97615C1.25 6.97621 1.25 6.97628 1.25 6.97635C1.25 6.97642 1.25 6.97648 1.25 6.97655C1.25 6.97662 1.25 6.97669 1.25 6.97675C1.25 6.97682 1.25 6.97689 1.25 6.97696C1.25 6.97702 1.25 6.97709 1.25 6.97716C1.25 6.97723 1.25 6.97729 1.25 6.97736C1.25 6.97743 1.25 6.9775 1.25 6.97756C1.25 6.97763 1.25 6.9777 1.25 6.97776C1.25 6.97783 1.25 6.9779 1.25 6.97796C1.25 6.97803 1.25 6.9781 1.25 6.97816C1.25 6.97823 1.25 6.9783 1.25 6.97836C1.25 6.97843 1.25 6.9785 1.25 6.97856C1.25 6.97863 1.25 6.9787 1.25 6.97876C1.25 6.97883 1.25 6.9789 1.25 6.97896C1.25 6.97903 1.25 6.97909 1.25 6.97916C1.25 6.97923 1.25 6.97929 1.25 6.97936C1.25 6.97942 1.25 6.97949 1.25 6.97956C1.25 6.97962 1.25 6.97969 1.25 6.97975C1.25 6.97982 1.25 6.97988 1.25 6.97995C1.25 6.98002 1.25 6.98008 1.25 6.98015C1.25 6.98021 1.25 6.98028 1.25 6.98034C1.25 6.98041 1.25 6.98047 1.25 6.98054C1.25 6.9806 1.25 6.98067 1.25 6.98073C1.25 6.9808 1.25 6.98086 1.25 6.98093C1.25 6.98099 1.25 6.98106 1.25 6.98112C1.25 6.98119 1.25 6.98125 1.25 6.98132C1.25 6.98138 1.25 6.98145 1.25 6.98151C1.25 6.98158 1.25 6.98164 1.25 6.98171C1.25 6.98177 1.25 6.98184 1.25 6.9819C1.25 6.98197 1.25 6.98203 1.25 6.98209C1.25 6.98216 1.25 6.98222 1.25 6.98229C1.25 6.98235 1.25 6.98242 1.25 6.98248C1.25 6.98254 1.25 6.98261 1.25 6.98267C1.25 6.98274 1.25 6.9828 1.25 6.98286C1.25 6.98293 1.25 6.98299 1.25 6.98305C1.25 6.98312 1.25 6.98318 1.25 6.98325C1.25 6.98331 1.25 6.98337 1.25 6.98344C1.25 6.9835 1.25 6.98356 1.25 6.98363C1.25 6.98369 1.25 6.98375 1.25 6.98382C1.25 6.98388 1.25 6.98394 1.25 6.98401C1.25 6.98407 1.25 6.98413 1.25 6.9842C1.25 6.98426 1.25 6.98432 1.25 6.98439C1.25 6.98445 1.25 6.98451 1.25 6.98457C1.25 6.98464 1.25 6.9847 1.25 6.98476C1.25 6.98483 1.25 6.98489 1.25 6.98495C1.25 6.98501 1.25 6.98508 1.25 6.98514C1.25 6.9852 1.25 6.98526 1.25 6.98533C1.25 6.98539 1.25 6.98545 1.25 6.98551C1.25 6.98558 1.25 6.98564 1.25 6.9857C1.25 6.98576 1.25 6.98583 1.25 6.98589C1.25 6.98595 1.25 6.98601 1.25 6.98607C1.25 6.98614 1.25 6.9862 1.25 6.98626C1.25 6.98632 1.25 6.98638 1.25 6.98644C1.25 6.98651 1.25 6.98657 1.25 6.98663C1.25 6.98669 1.25 6.98675 1.25 6.98681C1.25 6.98688 1.25 6.98694 1.25 6.987C1.25 6.98706 1.25 6.98712 1.25 6.98718C1.25 6.98725 1.25 6.98731 1.25 6.98737C1.25 6.98743 1.25 6.98749 1.25 6.98755C1.25 6.98761 1.25 6.98767 1.25 6.98774C1.25 6.9878 1.25 6.98786 1.25 6.98792C1.25 6.98798 1.25 6.98804 1.25 6.9881C1.25 6.98816 1.25 6.98822 1.25 6.98828C1.25 6.98834 1.25 6.9884 1.25 6.98847C1.25 6.98853 1.25 6.98859 1.25 6.98865C1.25 6.98871 1.25 6.98877 1.25 6.98883C1.25 6.98889 1.25 6.98895 1.25 6.98901C1.25 6.98907 1.25 6.98913 1.25 6.98919C1.25 6.98925 1.25 6.98931 1.25 6.98937C1.25 6.98943 1.25 6.98949 1.25 6.98955C1.25 6.98961 1.25 6.98967 1.25 6.98973C1.25 6.98979 1.25 6.98985 1.25 6.98991C1.25 6.98997 1.25 6.99003 1.25 6.99009C1.25 6.99015 1.25 6.99021 1.25 6.99027C1.25 6.99033 1.25 6.99039 1.25 6.99045C1.25 6.99051 1.25 6.99057 1.25 6.99063C1.25 6.99069 1.25 6.99075 1.25 6.99081C1.25 6.99087 1.25 6.99092 1.25 6.99098C1.25 6.99104 1.25 6.9911 1.25 6.99116C1.25 6.99122 1.25 6.99128 1.25 6.99134C1.25 6.9914 1.25 6.99146 1.25 6.99152C1.25 6.99158 1.25 6.99163 1.25 6.99169C1.25 6.99175 1.25 6.99181 1.25 6.99187C1.25 6.99193 1.25 6.99199 1.25 6.99205C1.25 6.9921 1.25 6.99216 1.25 6.99222C1.25 6.99228 1.25 6.99234 1.25 6.9924C1.25 6.99246 1.25 6.99251 1.25 6.99257C1.25 6.99263 1.25 6.99269 1.25 6.99275C1.25 6.99281 1.25 6.99286 1.25 6.99292C1.25 6.99298 1.25 6.99304 1.25 6.9931C1.25 6.99316 1.25 6.99321 1.25 6.99327C1.25 6.99333 1.25 6.99339 1.25 6.99345C1.25 6.9935 1.25 6.99356 1.25 6.99362C1.25 6.99368 1.25 6.99373 1.25 6.99379C1.25 6.99385 1.25 6.99391 1.25 6.99397C1.25 6.99402 1.25 6.99408 1.25 6.99414C1.25 6.9942 1.25 6.99425 1.25 6.99431C1.25 6.99437 1.25 6.99443 1.25 6.99448C1.25 6.99454 1.25 6.9946 1.25 6.99466C1.25 6.99471 1.25 6.99477 1.25 6.99483C1.25 6.99488 1.25 6.99494 1.25 6.995C1.25 6.99506 1.25 6.99511 1.25 6.99517C1.25 6.99523 1.25 6.99528 1.25 6.99534C1.25 6.9954 1.25 6.99545 1.25 6.99551C1.25 6.99557 1.25 6.99563 1.25 6.99568C1.25 6.99574 1.25 6.9958 1.25 6.99585C1.25 6.99591 1.25 6.99597 1.25 6.99602C1.25 6.99608 1.25 6.99614 1.25 6.99619C1.25 6.99625 1.25 6.9963 1.25 6.99636C1.25 6.99642 1.25 6.99647 1.25 6.99653C1.25 6.99659 1.25 6.99664 1.25 6.9967C1.25 6.99676 1.25 6.99681 1.25 6.99687C1.25 6.99692 1.25 6.99698 1.25 6.99704C1.25 6.99709 1.25 6.99715 1.25 6.9972C1.25 6.99726 1.25 6.99732 1.25 6.99737C1.25 6.99743 1.25 6.99748 1.25 6.99754C1.25 6.9976 1.25 6.99765 1.25 6.99771C1.25 6.99776 1.25 6.99782 1.25 6.99787C1.25 6.99793 1.25 6.99799 1.25 6.99804C1.25 6.9981 1.25 6.99815 1.25 6.99821C1.25 6.99826 1.25 6.99832 1.25 6.99837C1.25 6.99843 1.25 6.99849 1.25 6.99854C1.25 6.9986 1.25 6.99865 1.25 6.99871C1.25 6.99876 1.25 6.99882 1.25 6.99887C1.25 6.99893 1.25 6.99898 1.25 6.99904C1.25 6.99909 1.25 6.99915 1.25 6.9992C1.25 6.99926 1.25 6.99931 1.25 6.99937C1.25 6.99942 1.25 6.99948 1.25 6.99953C1.25 6.99959 1.25 6.99964 1.25 6.9997C1.25 6.99975 1.25 6.99981 1.25 6.99986C1.25 6.99992 1.25 6.99997 1.25 7.00003C1.25 7.00008 1.25 7.00013 1.25 7.00019C1.25 7.00024 1.25 7.0003 1.25 7.00035C1.25 7.00041 1.25 7.00046 1.25 7.00052C1.25 7.00057 1.25 7.00062 1.25 7.00068C1.25 7.00073 1.25 7.00079 1.25 7.00084C1.25 7.0009 1.25 7.00095 1.25 7.001C1.25 7.00106 1.25 7.00111 1.25 7.00117C1.25 7.00122 1.25 7.00127 1.25 7.00133C1.25 7.00138 1.25 7.00144 1.25 7.00149C1.25 7.00154 1.25 7.0016 1.25 7.00165C1.25 7.00171 1.25 7.00176 1.25 7.00181C1.25 7.00187 1.25 7.00192 1.25 7.00197C1.25 7.00203 1.25 7.00208 1.25 7.00214C1.25 7.00219 1.25 7.00224 1.25 7.0023C1.25 7.00235 1.25 7.0024 1.25 7.00246C1.25 7.00251 1.25 7.00256 1.25 7.00262C1.25 7.00267 1.25 7.00272 1.25 7.00278C1.25 7.00283 1.25 7.00288 1.25 7.00294C1.25 7.00299 1.25 7.00304 1.25 7.0031C1.25 7.00315 1.25 7.0032 1.25 7.00326C1.25 7.00331 1.25 7.00336 1.25 7.00342C1.25 7.00347 1.25 7.00352 1.25 7.00357C1.25 7.00363 1.25 7.00368 1.25 7.00373C1.25 7.00379 1.25 7.00384 1.25 7.00389C1.25 7.00394 1.25 7.004 1.25 7.00405C1.25 7.0041 1.25 7.00416 1.25 7.00421C1.25 7.00426 1.25 7.00431 1.25 7.00437C1.25 7.00442 1.25 7.00447 1.25 7.00452C1.25 7.00458 1.25 7.00463 1.25 7.00468C1.25 7.00473 1.25 7.00479 1.25 7.00484C1.25 7.00489 1.25 7.00494 1.25 7.005C1.25 7.00505 1.25 7.0051 1.25 7.00515C1.25 7.00521 1.25 7.00526 1.25 7.00531C1.25 7.00536 1.25 7.00541 1.25 7.00547C1.25 7.00552 1.25 7.00557 1.25 7.00562C1.25 7.00567 1.25 7.00573 1.25 7.00578C1.25 7.00583 1.25 7.00588 1.25 7.00594C1.25 7.00599 1.25 7.00604 1.25 7.00609C1.25 7.00614 1.25 7.00619 1.25 7.00625C1.25 7.0063 1.25 7.00635 1.25 7.0064C1.25 7.00645 1.25 7.00651 1.25 7.00656C1.25 7.00661 1.25 7.00666 1.25 7.00671C1.25 7.00676 1.25 7.00681 1.25 7.00687C1.25 7.00692 1.25 7.00697 1.25 7.00702C1.25 7.00707 1.25 7.00712 1.25 7.00718C1.25 7.00723 1.25 7.00728 1.25 7.00733C1.25 7.00738 1.25 7.00743 1.25 7.00748C1.25 7.00753 1.25 7.00759 1.25 7.00764C1.25 7.00769 1.25 7.00774 1.25 7.00779C1.25 7.00784 1.25 7.00789 1.25 7.00794C1.25 7.008 1.25 7.00805 1.25 7.0081C1.25 7.00815 1.25 7.0082 1.25 7.00825C1.25 7.0083 1.25 7.00835 1.25 7.0084C1.25 7.00845 1.25 7.00851 1.25 7.00856C1.25 7.00861 1.25 7.00866 1.25 7.00871C1.25 7.00876 1.25 7.00881 1.25 7.00886C1.25 7.00891 1.25 7.00896 1.25 7.00901C1.25 7.00906 1.25 7.00912 1.25 7.00917C1.25 7.00922 1.25 7.00927 1.25 7.00932C1.25 7.00937 1.25 7.00942 1.25 7.00947C1.25 7.00952 1.25 7.00957 1.25 7.00962C1.25 7.00967 1.25 7.00972 1.25 7.00977C1.25 7.00982 1.25 7.00987 1.25 7.00992C1.25 7.00997 1.25 7.01002 1.25 7.01007C1.25 7.01012 1.25 7.01018 1.25 7.01023C1.25 7.01028 1.25 7.01033 1.25 7.01038C1.25 7.01043 1.25 7.01048 1.25 7.01053C1.25 7.01058 1.25 7.01063 1.25 7.01068C1.25 7.01073 1.25 7.01078 1.25 7.01083C1.25 7.01088 1.25 7.01093 1.25 7.01098C1.25 7.01103 1.25 7.01108 1.25 7.01113C1.25 7.01118 1.25 7.01123 1.25 7.01128C1.25 7.01133 1.25 7.01138 1.25 7.01143C1.25 7.01148 1.25 7.01153 1.25 7.01158C1.25 7.01163 1.25 7.01167 1.25 7.01172C1.25 7.01177 1.25 7.01182 1.25 7.01187C1.25 7.01192 1.25 7.01197 1.25 7.01202C1.25 7.01207 1.25 7.01212 1.25 7.01217C1.25 7.01222 1.25 7.01227 1.25 7.01232C1.25 7.01237 1.25 7.01242 1.25 7.01247C1.25 7.01252 1.25 7.01257 1.25 7.01262C1.25 7.01267 1.25 7.01272 1.25 7.01276C1.25 7.01281 1.25 7.01286 1.25 7.01291C1.25 7.01296 1.25 7.01301 1.25 7.01306C1.25 7.01311 1.25 7.01316 1.25 7.01321C1.25 7.01326 1.25 7.01331 1.25 7.01336C1.25 7.0134 1.25 7.01345 1.25 7.0135C1.25 7.01355 1.25 7.0136 1.25 7.01365C1.25 7.0137 1.25 7.01375 1.25 7.0138C1.25 7.01385 1.25 7.0139 1.25 7.01394C1.25 7.01399 1.25 7.01404 1.25 7.01409C1.25 7.01414 1.25 7.01419 1.25 7.01424C1.25 7.01429 1.25 7.01434 1.25 7.01438C1.25 7.01443 1.25 7.01448 1.25 7.01453C1.25 7.01458 1.25 7.01463 1.25 7.01468C1.25 7.01473 1.25 7.01477 1.25 7.01482C1.25 7.01487 1.25 7.01492 1.25 7.01497C1.25 7.01502 1.25 7.01507 1.25 7.01511C1.25 7.01516 1.25 7.01521 1.25 7.01526C1.25 7.01531 1.25 7.01536 1.25 7.01541C1.25 7.01545 1.25 7.0155 1.25 7.01555C1.25 7.0156 1.25 7.01565 1.25 7.0157C1.25 7.01575 1.25 7.01579 1.25 7.01584C1.25 7.01589 1.25 7.01594 1.25 7.01599C1.25 7.01604 1.25 7.01608 1.25 7.01613C1.25 7.01618 1.25 7.01623 1.25 7.01628C1.25 7.01632 1.25 7.01637 1.25 7.01642C1.25 7.01647 1.25 7.01652 1.25 7.01657C1.25 7.01661 1.25 7.01666 1.25 7.01671C1.25 7.01676 1.25 7.01681 1.25 7.01685C1.25 7.0169 1.25 7.01695 1.25 7.017C1.25 7.01705 1.25 7.0171 1.25 7.01714C1.25 7.01719 1.25 7.01724 1.25 7.01729C1.25 7.01733 1.25 7.01738 1.25 7.01743C1.25 7.01748 1.25 7.01753 1.25 7.01757C1.25 7.01762 1.25 7.01767 1.25 7.01772C1.25 7.01777 1.25 7.01781 1.25 7.01786C1.25 7.01791 1.25 7.01796 1.25 7.018C1.25 7.01805 1.25 7.0181 1.25 7.01815C1.25 7.0182 1.25 7.01824 1.25 7.01829C1.25 7.01834 1.25 7.01839 1.25 7.01843C1.25 7.01848 1.25 7.01853 1.25 7.01858C1.25 7.01863 1.25 7.01867 1.25 7.01872C1.25 7.01877 1.25 7.01882 1.25 7.01886C1.25 7.01891 1.25 7.01896 1.25 7.01901C1.25 7.01905 1.25 7.0191 1.25 7.01915C1.25 7.0192 1.25 7.01924 1.25 7.01929C1.25 7.01934 1.25 7.01939 1.25 7.01943C1.25 7.01948 1.25 7.01953 1.25 7.01958C1.25 7.01962 1.25 7.01967 1.25 7.01972C1.25 7.01976 1.25 7.01981 1.25 7.01986C1.25 7.01991 1.25 7.01995 1.25 7.02C1.25 7.02005 1.25 7.0201 1.25 7.02014C1.25 7.02019 1.25 7.02024 1.25 7.02028C1.25 7.02033 1.25 7.02038 1.25 7.02043C1.25 7.02047 1.25 7.02052 1.25 7.02057C1.25 7.02062 1.25 7.02066 1.25 7.02071C1.25 7.02076 1.25 7.0208 1.25 7.02085C1.25 7.0209 1.25 7.02094 1.25 7.02099C1.25 7.02104 1.25 7.02109 1.25 7.02113C1.25 7.02118 1.25 7.02123 1.25 7.02127C1.25 7.02132 1.25 7.02137 1.25 7.02142C1.25 7.02146 1.25 7.02151 1.25 7.02156C1.25 7.0216 1.25 7.02165 1.25 7.0217C1.25 7.02174 1.25 7.02179 1.25 7.02184C1.25 7.02188 1.25 7.02193 1.25 7.02198C1.25 7.02203 1.25 7.02207 1.25 7.02212C1.25 7.02217 1.25 7.02221 1.25 7.02226C1.25 7.02231 1.25 7.02235 1.25 7.0224C1.25 7.02245 1.25 7.02249 1.25 7.02254C1.25 7.02259 1.25 7.02263 1.25 7.02268C1.25 7.02273 1.25 7.02277 1.25 7.02282C1.25 7.02287 1.25 7.02291 1.25 7.02296C1.25 7.02301 1.25 7.02305 1.25 7.0231C1.25 7.02315 1.25 7.02319 1.25 7.02324C1.25 7.02329 1.25 7.02333 1.25 7.02338C1.25 7.02343 1.25 7.02347 1.25 7.02352C1.25 7.02357 1.25 7.02361 1.25 7.02366C1.25 7.02371 1.25 7.02375 1.25 7.0238C1.25 7.02385 1.25 7.02389 1.25 7.02394C1.25 7.02399 1.25 7.02403 1.25 7.02408C1.25 7.02413 1.25 7.02417 1.25 7.02422C1.25 7.02426 1.25 7.02431 1.25 7.02436C1.25 7.0244 1.25 7.02445 1.25 7.0245C1.25 7.02454 1.25 7.02459 1.25 7.02464C1.25 7.02468 1.25 7.02473 1.25 7.02478C1.25 7.02482 1.25 7.02487 1.25 7.02491C1.25 7.02496 1.25 7.02501 1.25 7.02505C1.25 7.0251 1.25 7.02515 1.25 7.02519C1.25 7.02524 1.25 7.02528 1.25 7.02533C1.25 7.02538 1.25 7.02542 1.25 7.02547C1.25 7.02552 1.25 7.02556 1.25 7.02561C1.25 7.02566 1.25 7.0257 1.25 7.02575C1.25 7.02579 1.25 7.02584 1.25 7.02589C1.25 7.02593 1.25 7.02598 1.25 7.02602C1.25 7.02607 1.25 7.02612 1.25 7.02616C1.25 7.02621 1.25 7.02626 1.25 7.0263C1.25 7.02635 1.25 7.02639 1.25 7.02644C1.25 7.02649 1.25 7.02653 1.25 7.02658C1.25 7.02663 1.25 7.02667 1.25 7.02672C1.25 7.02676 1.25 7.02681 1.25 7.02686C1.25 7.0269 1.25 7.02695 1.25 7.02699C1.25 7.02704 1.25 7.02709 1.25 7.02713C1.25 7.02718 1.25 7.02722 1.25 7.02727C1.25 7.02732 1.25 7.02736 1.25 7.02741C1.25 7.02745 1.25 7.0275 1.25 7.02755C1.25 7.02759 1.25 7.02764 1.25 7.02769C1.25 7.02773 1.25 7.02778 1.25 7.02782C1.25 7.02787 1.25 7.02792 1.25 7.02796C1.25 7.02801 1.25 7.02805 1.25 7.0281C1.25 7.02815 1.25 7.02819 1.25 7.02824C1.25 7.02828 1.25 7.02833 1.25 7.02838C1.25 7.02842 1.25 7.02847 1.25 7.02851C1.25 7.02856 1.25 7.0286 1.25 7.02865C1.25 7.0287 1.25 7.02874 1.25 7.02879C1.25 7.02883 1.25 7.02888 1.25 7.02893C1.25 7.02897 1.25 7.02902 1.25 7.02906C1.25 7.02911 1.25 7.02916 1.25 7.0292C1.25 7.02925 1.25 7.02929 1.25 7.02934C1.25 7.02939 1.25 7.02943 1.25 7.02948C1.25 7.02952 1.25 7.02957 1.25 7.02961C1.25 7.02966 1.25 7.02971 1.25 7.02975C1.25 7.0298 1.25 7.02984 1.25 7.02989C1.25 7.02994 1.25 7.02998 1.25 7.03003C1.25 7.03007 1.25 7.03012 1.25 7.03017C1.25 7.03021 1.25 7.03026 1.25 7.0303C1.25 7.03035 1.25 7.03039 1.25 7.03044C1.25 7.03049 1.25 7.03053 1.25 7.03058C1.25 7.03062 1.25 7.03067 1.25 7.03071C1.25 7.03076 1.25 7.03081 1.25 7.03085C1.25 7.0309 1.25 7.03094 1.25 7.03099C1.25 7.03104 1.25 7.03108 1.25 7.03113C1.25 7.03117 1.25 7.03122 1.25 7.03126C1.25 7.03131 1.25 7.03136 1.25 7.0314C1.25 7.03145 1.25 7.03149 1.25 7.03154C1.25 7.03159 1.25 7.03163 1.25 7.03168C1.25 7.03172 1.25 7.03177 1.25 7.03181C1.25 7.03186 1.25 7.03191 1.25 7.03195C1.25 7.032 1.25 7.03204 1.25 7.03209C1.25 7.03214 1.25 7.03218 1.25 7.03223C1.25 7.03227 1.25 7.03232 1.25 7.03236C1.25 7.03241 1.25 7.03246 1.25 7.0325C1.25 7.03255 1.25 7.03259 1.25 7.03264C1.25 7.03268 1.25 7.03273 1.25 7.03278C1.25 7.03282 1.25 7.03287 1.25 7.03291H2.25ZM2.25 6.93916H3.25C3.25 7.13685 3.1699 7.29612 3.06789 7.40323C2.9593 7.51725 2.78782 7.61104 2.57812 7.61104V6.61104V5.61104C1.79292 5.61104 1.25 6.26935 1.25 6.93916H2.25ZM2.57812 6.61104V7.61104H3.5625V6.61104V5.61104H2.57812V6.61104ZM3.5625 6.61104V7.61104C3.23703 7.61104 3.06943 7.40935 3.04375 7.3751L3.84375 6.7751L4.64375 6.1751C4.47744 5.95335 4.12235 5.61104 3.5625 5.61104V6.61104ZM3.84375 6.7751L3.05216 7.38615L4.08341 8.72209L4.875 8.11104L5.66659 7.49999L4.63534 6.16405L3.84375 6.7751ZM4.875 8.11104V9.11104H7.26562V8.11104V7.11104H4.875V8.11104ZM7.26562 8.11104L8.22694 7.83557L7.0785 3.82776L6.11719 4.10323L5.15588 4.37869L6.30431 8.3865L7.26562 8.11104ZM6.11719 4.10323L7.07501 3.81588C7.14207 4.0394 7.07762 4.24127 6.98164 4.36924C6.88318 4.50052 6.71007 4.61104 6.49219 4.61104V3.61104V2.61104C5.57308 2.61104 4.89411 3.5064 5.15936 4.39057L6.11719 4.10323ZM6.49219 3.61104V4.61104H7.80469V3.61104V2.61104H6.49219V3.61104ZM7.80469 3.61104V4.61104C7.7226 4.61104 7.67236 4.58615 7.65266 4.57402C7.63249 4.56161 7.6169 4.5464 7.60344 4.52397L8.46094 4.00948L9.31843 3.49498C9.02675 3.00884 8.46783 2.61104 7.80469 2.61104V3.61104ZM8.46094 4.00948L7.59269 4.50561L9.93644 8.60718L10.8047 8.11104L11.6729 7.6149L9.32918 3.51334L8.46094 4.00948ZM10.8047 8.11104V9.11104H13.5469V8.11104V7.11104L10.8047 7.11104V8.11104Z" fill="#EFF8FF" mask="url(#path-2-outside-1_2056_600)"/>
</g>
</g>
<defs>
<filter id="filter0_ddd_2056_600" x="-2.92776" y="-0.731171" width="23.8555" height="22.3555" filterUnits="userSpaceOnUse" color-interpolation-filters="sRGB">
<feFlood flood-opacity="0" result="BackgroundImageFix"/>
<feColorMatrix in="SourceAlpha" type="matrix" values="0 0 0 0 0 0 0 0 0 0 0 0 0 0 0 0 0 0 127 0" result="hardAlpha"/>
<feOffset dy="0.0553451"/>
<feGaussianBlur stdDeviation="0.138363"/>
<feColorMatrix type="matrix" values="0 0 0 0 0.207843 0 0 0 0 0.25098 0 0 0 0 0.360784 0 0 0 0.045 0"/>
<feBlend mode="normal" in2="BackgroundImageFix" result="effect1_dropShadow_2056_600"/>
<feColorMatrix in="SourceAlpha" type="matrix" values="0 0 0 0 0 0 0 0 0 0 0 0 0 0 0 0 0 0 127 0" result="hardAlpha"/>
<feOffset dy="0.133002"/>
<feGaussianBlur stdDeviation="0.332505"/>
<feColorMatrix type="matrix" values="0 0 0 0 0.207843 0 0 0 0 0.25098 0 0 0 0 0.360784 0 0 0 0.0646 0"/>
<feBlend mode="normal" in2="effect1_dropShadow_2056_600" result="effect2_dropShadow_2056_600"/>
<feColorMatrix in="SourceAlpha" type="matrix" values="0 0 0 0 0 0 0 0 0 0 0 0 0 0 0 0 0 0 127 0" result="hardAlpha"/>
<feOffset dy="0.835552"/>
<feGaussianBlur stdDeviation="2.08888"/>
<feColorMatrix type="matrix" values="0 0 0 0 0.207843 0 0 0 0 0.25098 0 0 0 0 0.360784 0 0 0 0.115 0"/>
<feBlend mode="normal" in2="effect2_dropShadow_2056_600" result="effect3_dropShadow_2056_600"/>
<feBlend mode="normal" in="SourceGraphic" in2="effect3_dropShadow_2056_600" result="shape"/>
</filter>
<clipPath id="clip0_2056_600">
<rect width="84" height="22" fill="white"/>
</clipPath>
</defs>
</svg>
